<mxfile host="app.diagrams.net" agent="Mozilla/5.0 (X11; Linux x86_64) AppleWebKit/537.36 (KHTML, like Gecko) Chrome/138.0.0.0 Safari/537.36" version="28.0.6" pages="2">
  <diagram id="iksWbhlRuVMLBOFzIlUx" name="layers">
    <mxGraphModel grid="1" page="1" gridSize="10" guides="1" tooltips="1" connect="1" arrows="1" fold="1" pageScale="1" pageWidth="850" pageHeight="1100" math="0" shadow="0">
      <root>
        <UserObject label="" animation="show nhWVaI8cgeq938TbGaE1-1 fade&#xa;wait 1000&#xa;show nhWVaI8cgeq938TbGaE1-5&#xa;show nhWVaI8cgeq938TbGaE1-6&#xa;wait 1000&#xa;flow nhWVaI8cgeq938TbGaE1-5 start&#xa;flow nhWVaI8cgeq938TbGaE1-6 start&#xa;wait 1000&#xa;show nhWVaI8cgeq938TbGaE1-2 fade&#xa;show nhWVaI8cgeq938TbGaE1-3 fade&#xa;wait 1000&#xa;show nhWVaI8cgeq938TbGaE1-7&#xa;show nhWVaI8cgeq938TbGaE1-8&#xa;wait 1000&#xa;flow nhWVaI8cgeq938TbGaE1-7 start&#xa;flow nhWVaI8cgeq938TbGaE1-8 start&#xa;wait 1000&#xa;show nhWVaI8cgeq938TbGaE1-4 fade&#xa;wait 1000&#xa;" id="0">
          <mxCell />
        </UserObject>
        <mxCell id="HCNqZcL4kCL4rz3BPRrv-8" value="toggles" style="locked=1;" parent="0" />
        <UserObject label="Class Diagram" link="data:action/json,{&quot;actions&quot;:[{&quot;toggle&quot;: {&quot;cells&quot;: [&quot;1&quot;]}}]}" id="HCNqZcL4kCL4rz3BPRrv-9">
          <mxCell style="rounded=1;whiteSpace=wrap;html=1;fillColor=#1ba1e2;strokeColor=#006EAF;fontColor=#ffffff;fontStyle=1;fontSize=16;" vertex="1" parent="HCNqZcL4kCL4rz3BPRrv-8">
            <mxGeometry x="-160" y="80" width="160" height="40" as="geometry" />
          </mxCell>
        </UserObject>
        <UserObject label="Activity Diagram" link="data:action/json,{&quot;actions&quot;:[{&quot;toggle&quot;: {&quot;cells&quot;: [&quot;3&quot;]}}]}" id="HCNqZcL4kCL4rz3BPRrv-11">
          <mxCell style="rounded=1;whiteSpace=wrap;html=1;fillColor=#1ba1e2;strokeColor=#006EAF;fontColor=#ffffff;fontStyle=1;fontSize=16;" vertex="1" parent="HCNqZcL4kCL4rz3BPRrv-8">
            <mxGeometry x="-160" y="240" width="160" height="40" as="geometry" />
          </mxCell>
        </UserObject>
        <UserObject label="Sequence&lt;span style=&quot;background-color: transparent; color: light-dark(rgb(255, 255, 255), rgb(18, 18, 18));&quot;&gt;&amp;nbsp;Diagram&lt;/span&gt;" link="data:action/json,{&quot;actions&quot;:[{&quot;toggle&quot;:{&quot;cells&quot;:[&quot;2&quot;]}}]}" id="HCNqZcL4kCL4rz3BPRrv-17">
          <mxCell style="rounded=1;whiteSpace=wrap;html=1;fillColor=#1ba1e2;strokeColor=#006EAF;fontColor=#ffffff;fontStyle=1;fontSize=16;" vertex="1" parent="HCNqZcL4kCL4rz3BPRrv-8">
            <mxGeometry x="-160" y="160" width="160" height="40" as="geometry" />
          </mxCell>
        </UserObject>
        <object label="AcD" id="3">
          <mxCell style="" parent="0" />
        </object>
        <mxCell id="HCNqZcL4kCL4rz3BPRrv-7" value="" style="group;fillColor=default;editable=1;movable=1;resizable=1;rotatable=1;deletable=1;locked=0;connectable=1;opacity=90;" vertex="1" connectable="0" parent="3">
          <mxGeometry x="1610" y="80" width="890" height="510" as="geometry" />
        </mxCell>
        <mxCell id="t3F0B0d-IVrKMwyxO0nn-1" value="Actors" style="swimlane;html=1;childLayout=stackLayout;resizeParent=1;resizeParentMax=0;horizontal=0;startSize=20;horizontalStack=0;whiteSpace=wrap;verticalAlign=middle;editable=1;movable=1;resizable=1;rotatable=1;deletable=1;locked=0;connectable=1;" vertex="1" parent="HCNqZcL4kCL4rz3BPRrv-7">
          <mxGeometry width="890" height="510" as="geometry" />
        </mxCell>
        <mxCell id="t3F0B0d-IVrKMwyxO0nn-2" value="&lt;div&gt;Orders&lt;/div&gt;" style="swimlane;html=1;startSize=20;horizontal=0;fillColor=#fff2cc;strokeColor=#d6b656;editable=1;movable=1;resizable=1;rotatable=1;deletable=1;locked=0;connectable=1;" vertex="1" parent="t3F0B0d-IVrKMwyxO0nn-1">
          <mxGeometry x="20" width="870" height="270" as="geometry" />
        </mxCell>
        <mxCell id="t3F0B0d-IVrKMwyxO0nn-3" value="" style="html=1;align=center;verticalAlign=top;rounded=1;absoluteArcSize=1;arcSize=20;dashed=1;fontColor=#333333;fillColor=#f9f9f9;strokeColor=#999999;editable=1;movable=1;resizable=1;rotatable=1;deletable=1;locked=0;connectable=1;" vertex="1" parent="t3F0B0d-IVrKMwyxO0nn-2">
          <mxGeometry x="90" y="10" width="480" height="170" as="geometry" />
        </mxCell>
        <mxCell id="t3F0B0d-IVrKMwyxO0nn-4" value="&lt;div&gt;Receive &lt;br&gt;&lt;/div&gt;&lt;div&gt;order&lt;/div&gt;" style="html=1;align=center;verticalAlign=top;rounded=1;absoluteArcSize=1;arcSize=10;dashed=0;fillColor=#fff2cc;strokeColor=#d6b656;editable=1;movable=1;resizable=1;rotatable=1;deletable=1;locked=0;connectable=1;" vertex="1" parent="t3F0B0d-IVrKMwyxO0nn-2">
          <mxGeometry x="104" y="105" width="66" height="40" as="geometry" />
        </mxCell>
        <mxCell id="t3F0B0d-IVrKMwyxO0nn-5" style="edgeStyle=orthogonalEdgeStyle;rounded=0;orthogonalLoop=1;jettySize=auto;html=1;editable=1;movable=1;resizable=1;rotatable=1;deletable=1;locked=0;connectable=1;flowAnimation=0;" edge="1" parent="t3F0B0d-IVrKMwyxO0nn-2" source="t3F0B0d-IVrKMwyxO0nn-6" target="t3F0B0d-IVrKMwyxO0nn-17">
          <mxGeometry relative="1" as="geometry">
            <Array as="points">
              <mxPoint x="215" y="75" />
              <mxPoint x="770" y="75" />
            </Array>
            <mxPoint x="675" y="110" as="targetPoint" />
          </mxGeometry>
        </mxCell>
        <mxCell id="t3F0B0d-IVrKMwyxO0nn-6" value="" style="rhombus;fillColor=#fff2cc;strokeColor=#d6b656;editable=1;movable=1;resizable=1;rotatable=1;deletable=1;locked=0;connectable=1;" vertex="1" parent="t3F0B0d-IVrKMwyxO0nn-2">
          <mxGeometry x="200" y="110" width="30" height="30" as="geometry" />
        </mxCell>
        <mxCell id="t3F0B0d-IVrKMwyxO0nn-7" value="" style="edgeStyle=orthogonalEdgeStyle;rounded=0;orthogonalLoop=1;jettySize=auto;html=1;editable=1;movable=1;resizable=1;rotatable=1;deletable=1;locked=0;connectable=1;flowAnimation=0;" edge="1" parent="t3F0B0d-IVrKMwyxO0nn-2" source="t3F0B0d-IVrKMwyxO0nn-4" target="t3F0B0d-IVrKMwyxO0nn-6">
          <mxGeometry relative="1" as="geometry" />
        </mxCell>
        <mxCell id="t3F0B0d-IVrKMwyxO0nn-8" value="Fill order" style="html=1;align=center;verticalAlign=middle;rounded=1;absoluteArcSize=1;arcSize=10;dashed=0;fillColor=#fff2cc;strokeColor=#d6b656;editable=1;movable=1;resizable=1;rotatable=1;deletable=1;locked=0;connectable=1;" vertex="1" parent="t3F0B0d-IVrKMwyxO0nn-2">
          <mxGeometry x="320" y="105" width="60" height="40" as="geometry" />
        </mxCell>
        <mxCell id="t3F0B0d-IVrKMwyxO0nn-9" value="[order accepted]" style="edgeStyle=orthogonalEdgeStyle;rounded=0;orthogonalLoop=1;jettySize=auto;html=1;labelBackgroundColor=none;editable=1;movable=1;resizable=1;rotatable=1;deletable=1;locked=0;connectable=1;flowAnimation=0;" edge="1" parent="t3F0B0d-IVrKMwyxO0nn-2" source="t3F0B0d-IVrKMwyxO0nn-6" target="t3F0B0d-IVrKMwyxO0nn-8">
          <mxGeometry x="-0.1111" y="-10" relative="1" as="geometry">
            <mxPoint as="offset" />
          </mxGeometry>
        </mxCell>
        <mxCell id="t3F0B0d-IVrKMwyxO0nn-10" value="" style="html=1;points=[];perimeter=orthogonalPerimeter;fillColor=#000000;strokeColor=none;editable=1;movable=1;resizable=1;rotatable=1;deletable=1;locked=0;connectable=1;" vertex="1" parent="t3F0B0d-IVrKMwyxO0nn-2">
          <mxGeometry x="410" y="85" width="5" height="80" as="geometry" />
        </mxCell>
        <mxCell id="t3F0B0d-IVrKMwyxO0nn-11" value="" style="edgeStyle=orthogonalEdgeStyle;rounded=0;orthogonalLoop=1;jettySize=auto;html=1;editable=1;movable=1;resizable=1;rotatable=1;deletable=1;locked=0;connectable=1;flowAnimation=0;" edge="1" parent="t3F0B0d-IVrKMwyxO0nn-2" source="t3F0B0d-IVrKMwyxO0nn-8" target="t3F0B0d-IVrKMwyxO0nn-10">
          <mxGeometry relative="1" as="geometry" />
        </mxCell>
        <mxCell id="t3F0B0d-IVrKMwyxO0nn-12" value="Prepare &lt;br&gt;shipment" style="html=1;align=center;verticalAlign=middle;rounded=1;absoluteArcSize=1;arcSize=10;dashed=0;fillColor=#fff2cc;strokeColor=#d6b656;editable=1;movable=1;resizable=1;rotatable=1;deletable=1;locked=0;connectable=1;" vertex="1" parent="t3F0B0d-IVrKMwyxO0nn-2">
          <mxGeometry x="470" y="105" width="80" height="40" as="geometry" />
        </mxCell>
        <mxCell id="t3F0B0d-IVrKMwyxO0nn-13" value="" style="edgeStyle=orthogonalEdgeStyle;rounded=0;orthogonalLoop=1;jettySize=auto;html=1;editable=1;movable=1;resizable=1;rotatable=1;deletable=1;locked=0;connectable=1;flowAnimation=0;" edge="1" parent="t3F0B0d-IVrKMwyxO0nn-2" source="t3F0B0d-IVrKMwyxO0nn-10" target="t3F0B0d-IVrKMwyxO0nn-12">
          <mxGeometry relative="1" as="geometry">
            <Array as="points" />
          </mxGeometry>
        </mxCell>
        <mxCell id="t3F0B0d-IVrKMwyxO0nn-14" style="edgeStyle=orthogonalEdgeStyle;rounded=0;orthogonalLoop=1;jettySize=auto;html=1;labelBackgroundColor=none;endArrow=classic;endFill=1;editable=1;movable=1;resizable=1;rotatable=1;deletable=1;locked=0;connectable=1;flowAnimation=0;" edge="1" parent="t3F0B0d-IVrKMwyxO0nn-2" source="t3F0B0d-IVrKMwyxO0nn-15" target="t3F0B0d-IVrKMwyxO0nn-25">
          <mxGeometry relative="1" as="geometry" />
        </mxCell>
        <mxCell id="t3F0B0d-IVrKMwyxO0nn-15" value="" style="html=1;points=[];perimeter=orthogonalPerimeter;fillColor=#000000;strokeColor=none;editable=1;movable=1;resizable=1;rotatable=1;deletable=1;locked=0;connectable=1;" vertex="1" parent="t3F0B0d-IVrKMwyxO0nn-2">
          <mxGeometry x="610" y="85" width="5" height="80" as="geometry" />
        </mxCell>
        <mxCell id="t3F0B0d-IVrKMwyxO0nn-16" value="" style="edgeStyle=none;rounded=0;orthogonalLoop=1;jettySize=auto;html=1;editable=1;movable=1;resizable=1;rotatable=1;deletable=1;locked=0;connectable=1;flowAnimation=0;" edge="1" parent="t3F0B0d-IVrKMwyxO0nn-2" source="t3F0B0d-IVrKMwyxO0nn-12" target="t3F0B0d-IVrKMwyxO0nn-15">
          <mxGeometry relative="1" as="geometry" />
        </mxCell>
        <mxCell id="t3F0B0d-IVrKMwyxO0nn-17" value="&lt;div&gt;Close &lt;br&gt;&lt;/div&gt;&lt;div&gt;order&lt;/div&gt;" style="html=1;align=center;verticalAlign=top;rounded=1;absoluteArcSize=1;arcSize=10;dashed=0;fillColor=#fff2cc;strokeColor=#d6b656;editable=1;movable=1;resizable=1;rotatable=1;deletable=1;locked=0;connectable=1;" vertex="1" parent="t3F0B0d-IVrKMwyxO0nn-2">
          <mxGeometry x="745" y="105" width="60" height="40" as="geometry" />
        </mxCell>
        <mxCell id="t3F0B0d-IVrKMwyxO0nn-18" value="" style="edgeStyle=orthogonalEdgeStyle;rounded=0;orthogonalLoop=1;jettySize=auto;html=1;editable=1;movable=1;resizable=1;rotatable=1;deletable=1;locked=0;connectable=1;flowAnimation=0;" edge="1" parent="t3F0B0d-IVrKMwyxO0nn-2" source="t3F0B0d-IVrKMwyxO0nn-25" target="t3F0B0d-IVrKMwyxO0nn-17">
          <mxGeometry relative="1" as="geometry">
            <mxPoint x="690" y="125" as="sourcePoint" />
          </mxGeometry>
        </mxCell>
        <mxCell id="t3F0B0d-IVrKMwyxO0nn-19" value="" style="ellipse;html=1;shape=endState;fillColor=#000000;strokeColor=#000000;editable=1;movable=1;resizable=1;rotatable=1;deletable=1;locked=0;connectable=1;" vertex="1" parent="t3F0B0d-IVrKMwyxO0nn-2">
          <mxGeometry x="830" y="210" width="30" height="30" as="geometry" />
        </mxCell>
        <mxCell id="t3F0B0d-IVrKMwyxO0nn-20" value="" style="rounded=0;orthogonalLoop=1;jettySize=auto;html=1;editable=1;movable=1;resizable=1;rotatable=1;deletable=1;locked=0;connectable=1;flowAnimation=0;flowAnimationDirection=normal;flowAnimationTimingFunction=linear;" edge="1" parent="t3F0B0d-IVrKMwyxO0nn-2" source="t3F0B0d-IVrKMwyxO0nn-17" target="t3F0B0d-IVrKMwyxO0nn-19">
          <mxGeometry relative="1" as="geometry" />
        </mxCell>
        <mxCell id="t3F0B0d-IVrKMwyxO0nn-21" value="Order cancel request" style="html=1;shape=mxgraph.infographic.ribbonSimple;notch1=20;notch2=0;align=center;verticalAlign=middle;fontSize=14;fontStyle=0;fillColor=#f8cecc;flipH=0;spacingRight=0;spacingLeft=14;strokeColor=#b85450;editable=1;movable=1;resizable=1;rotatable=1;deletable=1;locked=0;connectable=1;" vertex="1" parent="t3F0B0d-IVrKMwyxO0nn-2">
          <mxGeometry x="380" y="20" width="170" height="40" as="geometry" />
        </mxCell>
        <mxCell id="t3F0B0d-IVrKMwyxO0nn-22" style="edgeStyle=orthogonalEdgeStyle;rounded=0;orthogonalLoop=1;jettySize=auto;html=1;editable=1;movable=1;resizable=1;rotatable=1;deletable=1;locked=0;connectable=1;flowAnimation=0;" edge="1" parent="t3F0B0d-IVrKMwyxO0nn-2" source="t3F0B0d-IVrKMwyxO0nn-23" target="t3F0B0d-IVrKMwyxO0nn-19">
          <mxGeometry relative="1" as="geometry" />
        </mxCell>
        <mxCell id="t3F0B0d-IVrKMwyxO0nn-23" value="&lt;div&gt;Cancel &lt;br&gt;&lt;/div&gt;&lt;div&gt;order&lt;/div&gt;" style="html=1;align=center;verticalAlign=top;rounded=1;absoluteArcSize=1;arcSize=10;dashed=0;fillColor=#f8cecc;strokeColor=#b85450;editable=1;movable=1;resizable=1;rotatable=1;deletable=1;locked=0;connectable=1;" vertex="1" parent="t3F0B0d-IVrKMwyxO0nn-2">
          <mxGeometry x="745" y="20" width="60" height="40" as="geometry" />
        </mxCell>
        <mxCell id="t3F0B0d-IVrKMwyxO0nn-24" value="" style="shape=mxgraph.lean_mapping.electronic_info_flow_edge;html=1;editable=1;movable=1;resizable=1;rotatable=1;deletable=1;locked=0;connectable=1;" edge="1" parent="t3F0B0d-IVrKMwyxO0nn-2" source="t3F0B0d-IVrKMwyxO0nn-21" target="t3F0B0d-IVrKMwyxO0nn-23">
          <mxGeometry width="160" relative="1" as="geometry">
            <mxPoint x="640" y="-60" as="sourcePoint" />
            <mxPoint x="800" y="-60" as="targetPoint" />
          </mxGeometry>
        </mxCell>
        <mxCell id="t3F0B0d-IVrKMwyxO0nn-25" value="&lt;div&gt;Ship&lt;br&gt;&lt;/div&gt;&lt;div&gt;order&lt;/div&gt;" style="html=1;align=center;verticalAlign=top;rounded=1;absoluteArcSize=1;arcSize=10;dashed=0;fillColor=#fff2cc;strokeColor=#d6b656;editable=1;movable=1;resizable=1;rotatable=1;deletable=1;locked=0;connectable=1;" vertex="1" parent="t3F0B0d-IVrKMwyxO0nn-2">
          <mxGeometry x="650" y="105" width="60" height="40" as="geometry" />
        </mxCell>
        <mxCell id="t3F0B0d-IVrKMwyxO0nn-26" value="Accounting" style="swimlane;html=1;startSize=20;horizontal=0;fillColor=#d5e8d4;strokeColor=#82b366;editable=1;movable=1;resizable=1;rotatable=1;deletable=1;locked=0;connectable=1;" vertex="1" parent="t3F0B0d-IVrKMwyxO0nn-1">
          <mxGeometry x="20" y="270" width="870" height="120" as="geometry" />
        </mxCell>
        <mxCell id="t3F0B0d-IVrKMwyxO0nn-27" value="Send invoice" style="html=1;align=center;verticalAlign=middle;rounded=1;absoluteArcSize=1;arcSize=10;dashed=0;fillColor=#d5e8d4;strokeColor=#82b366;editable=1;movable=1;resizable=1;rotatable=1;deletable=1;locked=0;connectable=1;" vertex="1" parent="t3F0B0d-IVrKMwyxO0nn-26">
          <mxGeometry x="240" y="40" width="90" height="40" as="geometry" />
        </mxCell>
        <mxCell id="t3F0B0d-IVrKMwyxO0nn-28" value="&lt;div&gt;Accept &lt;br&gt;&lt;/div&gt;&lt;div&gt;payment&lt;/div&gt;" style="html=1;align=center;verticalAlign=top;rounded=1;absoluteArcSize=1;arcSize=10;dashed=0;fillColor=#d5e8d4;strokeColor=#82b366;editable=1;movable=1;resizable=1;rotatable=1;deletable=1;locked=0;connectable=1;" vertex="1" parent="t3F0B0d-IVrKMwyxO0nn-26">
          <mxGeometry x="540" y="30" width="70" height="40" as="geometry" />
        </mxCell>
        <mxCell id="t3F0B0d-IVrKMwyxO0nn-29" value="Customer" style="swimlane;html=1;startSize=20;horizontal=0;fillColor=#e1d5e7;strokeColor=#9673a6;editable=1;movable=1;resizable=1;rotatable=1;deletable=1;locked=0;connectable=1;" vertex="1" parent="t3F0B0d-IVrKMwyxO0nn-1">
          <mxGeometry x="20" y="390" width="870" height="120" as="geometry" />
        </mxCell>
        <mxCell id="t3F0B0d-IVrKMwyxO0nn-30" value="&lt;div&gt;Send &lt;br&gt;&lt;/div&gt;&lt;div&gt;payment&lt;/div&gt;" style="html=1;align=center;verticalAlign=middle;rounded=1;absoluteArcSize=1;arcSize=10;dashed=0;fillColor=#e1d5e7;strokeColor=#9673a6;editable=1;movable=1;resizable=1;rotatable=1;deletable=1;locked=0;connectable=1;" vertex="1" parent="t3F0B0d-IVrKMwyxO0nn-29">
          <mxGeometry x="470" y="40" width="70" height="40" as="geometry" />
        </mxCell>
        <mxCell id="t3F0B0d-IVrKMwyxO0nn-31" value="" style="ellipse;fillColor=#000000;strokeColor=none;editable=1;movable=1;resizable=1;rotatable=1;deletable=1;locked=0;connectable=1;" vertex="1" parent="t3F0B0d-IVrKMwyxO0nn-29">
          <mxGeometry x="30" y="45" width="30" height="30" as="geometry" />
        </mxCell>
        <mxCell id="t3F0B0d-IVrKMwyxO0nn-32" value="Submit order" style="rounded=1;whiteSpace=wrap;html=1;fillColor=#e1d5e7;strokeColor=#9673a6;editable=1;movable=1;resizable=1;rotatable=1;deletable=1;locked=0;connectable=1;" vertex="1" parent="t3F0B0d-IVrKMwyxO0nn-29">
          <mxGeometry x="102" y="40" width="70" height="40" as="geometry" />
        </mxCell>
        <mxCell id="t3F0B0d-IVrKMwyxO0nn-33" value="" style="edgeStyle=orthogonalEdgeStyle;rounded=0;orthogonalLoop=1;jettySize=auto;html=1;editable=1;movable=1;resizable=1;rotatable=1;deletable=1;locked=0;connectable=1;flowAnimation=0;" edge="1" parent="t3F0B0d-IVrKMwyxO0nn-29" source="t3F0B0d-IVrKMwyxO0nn-31" target="t3F0B0d-IVrKMwyxO0nn-32">
          <mxGeometry relative="1" as="geometry" />
        </mxCell>
        <mxCell id="t3F0B0d-IVrKMwyxO0nn-34" style="edgeStyle=orthogonalEdgeStyle;rounded=0;orthogonalLoop=1;jettySize=auto;html=1;exitX=0.2;exitY=0.613;exitDx=0;exitDy=0;exitPerimeter=0;editable=1;movable=1;resizable=1;rotatable=1;deletable=1;locked=0;connectable=1;flowAnimation=0;" edge="1" parent="t3F0B0d-IVrKMwyxO0nn-1" source="t3F0B0d-IVrKMwyxO0nn-10" target="t3F0B0d-IVrKMwyxO0nn-27">
          <mxGeometry relative="1" as="geometry">
            <mxPoint x="585" y="60" as="sourcePoint" />
            <Array as="points">
              <mxPoint x="431" y="140" />
              <mxPoint x="470" y="140" />
              <mxPoint x="470" y="200" />
              <mxPoint x="305" y="200" />
            </Array>
          </mxGeometry>
        </mxCell>
        <mxCell id="t3F0B0d-IVrKMwyxO0nn-35" style="edgeStyle=none;rounded=0;orthogonalLoop=1;jettySize=auto;html=1;editable=1;movable=1;resizable=1;rotatable=1;deletable=1;locked=0;connectable=1;flowAnimation=0;" edge="1" parent="t3F0B0d-IVrKMwyxO0nn-1" source="t3F0B0d-IVrKMwyxO0nn-30" target="t3F0B0d-IVrKMwyxO0nn-28">
          <mxGeometry relative="1" as="geometry" />
        </mxCell>
        <mxCell id="t3F0B0d-IVrKMwyxO0nn-36" style="edgeStyle=orthogonalEdgeStyle;rounded=0;orthogonalLoop=1;jettySize=auto;html=1;editable=1;movable=1;resizable=1;rotatable=1;deletable=1;locked=0;connectable=1;flowAnimation=0;" edge="1" parent="t3F0B0d-IVrKMwyxO0nn-1" source="t3F0B0d-IVrKMwyxO0nn-28" target="t3F0B0d-IVrKMwyxO0nn-15">
          <mxGeometry relative="1" as="geometry">
            <Array as="points">
              <mxPoint x="600" y="150" />
            </Array>
          </mxGeometry>
        </mxCell>
        <mxCell id="t3F0B0d-IVrKMwyxO0nn-37" style="edgeStyle=orthogonalEdgeStyle;rounded=0;orthogonalLoop=1;jettySize=auto;html=1;endArrow=classic;endFill=1;editable=1;movable=1;resizable=1;rotatable=1;deletable=1;locked=0;connectable=1;flowAnimation=0;" edge="1" parent="t3F0B0d-IVrKMwyxO0nn-1" source="t3F0B0d-IVrKMwyxO0nn-32" target="t3F0B0d-IVrKMwyxO0nn-4">
          <mxGeometry relative="1" as="geometry" />
        </mxCell>
        <mxCell id="t3F0B0d-IVrKMwyxO0nn-38" value="Invoice" style="text;align=center;verticalAlign=middle;dashed=0;fillColor=#ffffff;strokeColor=#000000;editable=1;movable=1;resizable=1;rotatable=1;deletable=1;locked=0;connectable=1;" vertex="1" parent="HCNqZcL4kCL4rz3BPRrv-7">
          <mxGeometry x="384" y="371" width="60" height="40" as="geometry" />
        </mxCell>
        <mxCell id="t3F0B0d-IVrKMwyxO0nn-39" style="rounded=0;orthogonalLoop=1;jettySize=auto;html=1;editable=1;movable=1;resizable=1;rotatable=1;deletable=1;locked=0;connectable=1;flowAnimation=0;" edge="1" parent="HCNqZcL4kCL4rz3BPRrv-7" source="t3F0B0d-IVrKMwyxO0nn-27" target="t3F0B0d-IVrKMwyxO0nn-38">
          <mxGeometry relative="1" as="geometry" />
        </mxCell>
        <mxCell id="t3F0B0d-IVrKMwyxO0nn-40" style="edgeStyle=none;rounded=0;orthogonalLoop=1;jettySize=auto;html=1;editable=1;movable=1;resizable=1;rotatable=1;deletable=1;locked=0;connectable=1;flowAnimation=0;" edge="1" parent="HCNqZcL4kCL4rz3BPRrv-7" source="t3F0B0d-IVrKMwyxO0nn-38" target="t3F0B0d-IVrKMwyxO0nn-30">
          <mxGeometry relative="1" as="geometry" />
        </mxCell>
        <UserObject label="Activity Diagram" link="data:action/json,{&quot;actions&quot;:[{&quot;toggle&quot;:{&quot;cells&quot;:[&quot;3&quot;]}}]}" id="HCNqZcL4kCL4rz3BPRrv-15">
          <mxCell style="rounded=1;whiteSpace=wrap;html=1;fillColor=#f5f5f5;strokeColor=#666666;fontColor=#333333;fontStyle=1;fontSize=16;" vertex="1" parent="3">
            <mxGeometry x="-160" y="240" width="160" height="40" as="geometry" />
          </mxCell>
        </UserObject>
        <object label="SqD" id="2">
          <mxCell style="" parent="0" />
        </object>
        <mxCell id="HCNqZcL4kCL4rz3BPRrv-6" value="" style="group;fillColor=default;editable=1;movable=1;resizable=1;rotatable=1;deletable=1;locked=0;connectable=1;opacity=90;" vertex="1" connectable="0" parent="2">
          <mxGeometry x="690" y="80" width="850" height="590" as="geometry" />
        </mxCell>
        <mxCell id="aQj23zJHS7Z3aVL87T_N-1" value="alt" style="shape=umlFrame;whiteSpace=wrap;html=1;fillColor=#f5f5f5;fontColor=#333333;strokeColor=#666666;editable=1;movable=1;resizable=1;rotatable=1;deletable=1;locked=0;connectable=1;" vertex="1" parent="HCNqZcL4kCL4rz3BPRrv-6">
          <mxGeometry x="160" y="200" width="620" height="330" as="geometry" />
        </mxCell>
        <mxCell id="aQj23zJHS7Z3aVL87T_N-2" value=":Customer" style="shape=umlLifeline;participant=umlActor;perimeter=lifelinePerimeter;html=1;container=1;collapsible=0;recursiveResize=0;verticalAlign=top;spacingTop=36;outlineConnect=0;size=40;fillColor=#f8cecc;strokeColor=#b85450;editable=1;movable=1;resizable=1;rotatable=1;deletable=1;locked=0;connectable=1;" vertex="1" parent="HCNqZcL4kCL4rz3BPRrv-6">
          <mxGeometry x="90" y="40" width="20" height="530" as="geometry" />
        </mxCell>
        <mxCell id="aQj23zJHS7Z3aVL87T_N-3" value="" style="html=1;points=[];perimeter=orthogonalPerimeter;fillColor=#f8cecc;strokeColor=#b85450;editable=1;movable=1;resizable=1;rotatable=1;deletable=1;locked=0;connectable=1;" vertex="1" parent="aQj23zJHS7Z3aVL87T_N-2">
          <mxGeometry x="5" y="70" width="10" height="420" as="geometry" />
        </mxCell>
        <mxCell id="aQj23zJHS7Z3aVL87T_N-4" value=":SearchForm" style="shape=umlLifeline;perimeter=lifelinePerimeter;whiteSpace=wrap;html=1;container=1;collapsible=0;recursiveResize=0;outlineConnect=0;fillColor=#ffe6cc;strokeColor=#d79b00;editable=1;movable=1;resizable=1;rotatable=1;deletable=1;locked=0;connectable=1;" vertex="1" parent="HCNqZcL4kCL4rz3BPRrv-6">
          <mxGeometry x="230" y="50" width="100" height="520" as="geometry" />
        </mxCell>
        <mxCell id="aQj23zJHS7Z3aVL87T_N-5" value="" style="html=1;points=[];perimeter=orthogonalPerimeter;fillColor=#ffe6cc;strokeColor=#d79b00;editable=1;movable=1;resizable=1;rotatable=1;deletable=1;locked=0;connectable=1;" vertex="1" parent="aQj23zJHS7Z3aVL87T_N-4">
          <mxGeometry x="45" y="80" width="10" height="380" as="geometry" />
        </mxCell>
        <mxCell id="aQj23zJHS7Z3aVL87T_N-6" value="" style="html=1;points=[];perimeter=orthogonalPerimeter;fillColor=#ffe6cc;strokeColor=#d79b00;editable=1;movable=1;resizable=1;rotatable=1;deletable=1;locked=0;connectable=1;" vertex="1" parent="aQj23zJHS7Z3aVL87T_N-4">
          <mxGeometry x="50" y="110" width="10" height="40" as="geometry" />
        </mxCell>
        <mxCell id="aQj23zJHS7Z3aVL87T_N-7" value="1.1: validSearch()" style="edgeStyle=orthogonalEdgeStyle;html=1;align=left;spacingLeft=2;endArrow=block;rounded=0;entryX=1;entryY=0;editable=1;movable=1;resizable=1;rotatable=1;deletable=1;locked=0;connectable=1;" edge="1" parent="aQj23zJHS7Z3aVL87T_N-4" target="aQj23zJHS7Z3aVL87T_N-6">
          <mxGeometry relative="1" as="geometry">
            <mxPoint x="55" y="100" as="sourcePoint" />
            <Array as="points">
              <mxPoint x="80" y="100" />
              <mxPoint x="80" y="110" />
            </Array>
          </mxGeometry>
        </mxCell>
        <mxCell id="aQj23zJHS7Z3aVL87T_N-8" value="" style="html=1;points=[];perimeter=orthogonalPerimeter;fillColor=#ffe6cc;strokeColor=#d79b00;editable=1;movable=1;resizable=1;rotatable=1;deletable=1;locked=0;connectable=1;" vertex="1" parent="aQj23zJHS7Z3aVL87T_N-4">
          <mxGeometry x="50" y="380" width="10" height="40" as="geometry" />
        </mxCell>
        <mxCell id="aQj23zJHS7Z3aVL87T_N-9" value="1.3: displayError()" style="edgeStyle=orthogonalEdgeStyle;html=1;align=left;spacingLeft=2;endArrow=block;rounded=0;entryX=1;entryY=0;editable=1;movable=1;resizable=1;rotatable=1;deletable=1;locked=0;connectable=1;" edge="1" parent="aQj23zJHS7Z3aVL87T_N-4" source="aQj23zJHS7Z3aVL87T_N-5" target="aQj23zJHS7Z3aVL87T_N-8">
          <mxGeometry relative="1" as="geometry">
            <mxPoint x="50" y="320" as="sourcePoint" />
            <Array as="points">
              <mxPoint x="80" y="370" />
              <mxPoint x="80" y="380" />
            </Array>
          </mxGeometry>
        </mxCell>
        <mxCell id="aQj23zJHS7Z3aVL87T_N-10" value="1: itemSearch(itemName)" style="html=1;verticalAlign=bottom;endArrow=block;entryX=0;entryY=0;rounded=0;editable=1;movable=1;resizable=1;rotatable=1;deletable=1;locked=0;connectable=1;" edge="1" parent="HCNqZcL4kCL4rz3BPRrv-6" source="aQj23zJHS7Z3aVL87T_N-3" target="aQj23zJHS7Z3aVL87T_N-5">
          <mxGeometry relative="1" as="geometry">
            <mxPoint x="205" y="130" as="sourcePoint" />
          </mxGeometry>
        </mxCell>
        <mxCell id="aQj23zJHS7Z3aVL87T_N-11" value=":SearchResults" style="shape=umlLifeline;perimeter=lifelinePerimeter;whiteSpace=wrap;html=1;container=1;collapsible=0;recursiveResize=0;outlineConnect=0;fillColor=#dae8fc;strokeColor=#6c8ebf;editable=1;movable=1;resizable=1;rotatable=1;deletable=1;locked=0;connectable=1;" vertex="1" parent="HCNqZcL4kCL4rz3BPRrv-6">
          <mxGeometry x="450" y="50" width="100" height="520" as="geometry" />
        </mxCell>
        <mxCell id="aQj23zJHS7Z3aVL87T_N-12" value="" style="html=1;points=[];perimeter=orthogonalPerimeter;fillColor=#dae8fc;strokeColor=#6c8ebf;editable=1;movable=1;resizable=1;rotatable=1;deletable=1;locked=0;connectable=1;" vertex="1" parent="aQj23zJHS7Z3aVL87T_N-11">
          <mxGeometry x="45" y="250" width="10" height="20" as="geometry" />
        </mxCell>
        <mxCell id="aQj23zJHS7Z3aVL87T_N-13" value=":ItemDatabase" style="shape=umlLifeline;participant=umlEntity;perimeter=lifelinePerimeter;whiteSpace=wrap;html=1;container=1;collapsible=0;recursiveResize=0;verticalAlign=top;spacingTop=36;outlineConnect=0;fillColor=#e1d5e7;strokeColor=#9673a6;editable=1;movable=1;resizable=1;rotatable=1;deletable=1;locked=0;connectable=1;" vertex="1" parent="HCNqZcL4kCL4rz3BPRrv-6">
          <mxGeometry x="620" y="50" width="40" height="520" as="geometry" />
        </mxCell>
        <mxCell id="aQj23zJHS7Z3aVL87T_N-14" value="" style="html=1;points=[];perimeter=orthogonalPerimeter;fillColor=#e1d5e7;strokeColor=#9673a6;editable=1;movable=1;resizable=1;rotatable=1;deletable=1;locked=0;connectable=1;" vertex="1" parent="aQj23zJHS7Z3aVL87T_N-13">
          <mxGeometry x="15" y="180" width="10" height="40" as="geometry" />
        </mxCell>
        <mxCell id="aQj23zJHS7Z3aVL87T_N-15" value=":ResultList" style="shape=umlLifeline;perimeter=lifelinePerimeter;whiteSpace=wrap;html=1;container=1;collapsible=0;recursiveResize=0;outlineConnect=0;fillColor=#d5e8d4;strokeColor=#82b366;editable=1;movable=1;resizable=1;rotatable=1;deletable=1;locked=0;connectable=1;" vertex="1" parent="HCNqZcL4kCL4rz3BPRrv-6">
          <mxGeometry x="700" y="120" width="100" height="220" as="geometry" />
        </mxCell>
        <mxCell id="aQj23zJHS7Z3aVL87T_N-16" value="" style="shape=umlDestroy;whiteSpace=wrap;html=1;strokeWidth=3;editable=1;movable=1;resizable=1;rotatable=1;deletable=1;locked=0;connectable=1;" vertex="1" parent="aQj23zJHS7Z3aVL87T_N-15">
          <mxGeometry x="35" y="200" width="30" height="30" as="geometry" />
        </mxCell>
        <mxCell id="aQj23zJHS7Z3aVL87T_N-17" value="" style="html=1;points=[];perimeter=orthogonalPerimeter;fillColor=#d5e8d4;strokeColor=#82b366;editable=1;movable=1;resizable=1;rotatable=1;deletable=1;locked=0;connectable=1;" vertex="1" parent="aQj23zJHS7Z3aVL87T_N-15">
          <mxGeometry x="45" y="115" width="10" height="65" as="geometry" />
        </mxCell>
        <mxCell id="aQj23zJHS7Z3aVL87T_N-18" value="1.2: SearchItems(itemName)" style="html=1;verticalAlign=bottom;endArrow=block;entryX=0;entryY=0;rounded=0;editable=1;movable=1;resizable=1;rotatable=1;deletable=1;locked=0;connectable=1;" edge="1" parent="HCNqZcL4kCL4rz3BPRrv-6" source="aQj23zJHS7Z3aVL87T_N-5" target="aQj23zJHS7Z3aVL87T_N-14">
          <mxGeometry relative="1" as="geometry">
            <mxPoint x="570" y="160" as="sourcePoint" />
          </mxGeometry>
        </mxCell>
        <mxCell id="aQj23zJHS7Z3aVL87T_N-19" value="1.2.1: listResults()" style="html=1;verticalAlign=bottom;endArrow=block;entryX=0;entryY=0;rounded=0;editable=1;movable=1;resizable=1;rotatable=1;deletable=1;locked=0;connectable=1;" edge="1" parent="HCNqZcL4kCL4rz3BPRrv-6" source="aQj23zJHS7Z3aVL87T_N-14" target="aQj23zJHS7Z3aVL87T_N-17">
          <mxGeometry relative="1" as="geometry">
            <mxPoint x="682" y="245" as="sourcePoint" />
          </mxGeometry>
        </mxCell>
        <mxCell id="aQj23zJHS7Z3aVL87T_N-20" value="1.2.1.1: displayResults()" style="html=1;verticalAlign=bottom;endArrow=block;entryX=1;entryY=0;rounded=0;editable=1;movable=1;resizable=1;rotatable=1;deletable=1;locked=0;connectable=1;" edge="1" parent="HCNqZcL4kCL4rz3BPRrv-6" source="aQj23zJHS7Z3aVL87T_N-17" target="aQj23zJHS7Z3aVL87T_N-12">
          <mxGeometry relative="1" as="geometry">
            <mxPoint x="570" y="280" as="sourcePoint" />
            <Array as="points">
              <mxPoint x="570" y="300" />
            </Array>
          </mxGeometry>
        </mxCell>
        <mxCell id="aQj23zJHS7Z3aVL87T_N-21" value="" style="endArrow=none;dashed=1;html=1;rounded=0;entryX=1;entryY=0.576;entryDx=0;entryDy=0;entryPerimeter=0;exitX=0;exitY=0.573;exitDx=0;exitDy=0;exitPerimeter=0;editable=1;movable=1;resizable=1;rotatable=1;deletable=1;locked=0;connectable=1;" edge="1" parent="HCNqZcL4kCL4rz3BPRrv-6" source="aQj23zJHS7Z3aVL87T_N-1" target="aQj23zJHS7Z3aVL87T_N-1">
          <mxGeometry width="50" height="50" relative="1" as="geometry">
            <mxPoint x="370" y="340" as="sourcePoint" />
            <mxPoint x="420" y="290" as="targetPoint" />
          </mxGeometry>
        </mxCell>
        <mxCell id="aQj23zJHS7Z3aVL87T_N-22" value="[itemName=valid]" style="text;html=1;align=center;verticalAlign=middle;resizable=1;points=[];autosize=1;strokeColor=none;fillColor=none;editable=1;movable=1;rotatable=1;deletable=1;locked=0;connectable=1;" vertex="1" parent="HCNqZcL4kCL4rz3BPRrv-6">
          <mxGeometry x="160" y="230" width="110" height="20" as="geometry" />
        </mxCell>
        <mxCell id="aQj23zJHS7Z3aVL87T_N-23" value="[else]" style="text;html=1;align=center;verticalAlign=middle;resizable=1;points=[];autosize=1;strokeColor=none;fillColor=none;editable=1;movable=1;rotatable=1;deletable=1;locked=0;connectable=1;" vertex="1" parent="HCNqZcL4kCL4rz3BPRrv-6">
          <mxGeometry x="160" y="390" width="40" height="20" as="geometry" />
        </mxCell>
        <mxCell id="aQj23zJHS7Z3aVL87T_N-24" style="edgeStyle=none;rounded=0;orthogonalLoop=1;jettySize=auto;html=1;endArrow=open;endFill=0;dashed=1;editable=1;movable=1;resizable=1;rotatable=1;deletable=1;locked=0;connectable=1;" edge="1" parent="HCNqZcL4kCL4rz3BPRrv-6" source="aQj23zJHS7Z3aVL87T_N-5" target="aQj23zJHS7Z3aVL87T_N-3">
          <mxGeometry relative="1" as="geometry">
            <Array as="points">
              <mxPoint x="190" y="500" />
            </Array>
          </mxGeometry>
        </mxCell>
        <mxCell id="aQj23zJHS7Z3aVL87T_N-25" value="sd searchForItems" style="shape=umlFrame;whiteSpace=wrap;html=1;width=120;height=30;boundedLbl=1;verticalAlign=middle;align=left;spacingLeft=5;fillColor=#f5f5f5;fontColor=#333333;strokeColor=#666666;editable=1;movable=1;resizable=1;rotatable=1;deletable=1;locked=0;connectable=1;" vertex="1" parent="HCNqZcL4kCL4rz3BPRrv-6">
          <mxGeometry width="850" height="590" as="geometry" />
        </mxCell>
        <UserObject label="Sequence Diagram" link="data:action/json,{&quot;actions&quot;:[{&quot;toggle&quot;:{&quot;cells&quot;:[&quot;HCNqZcL4kCL4rz3BPRrv-14&quot;]}}]}" id="HCNqZcL4kCL4rz3BPRrv-14">
          <mxCell style="rounded=1;whiteSpace=wrap;html=1;fillColor=#f5f5f5;strokeColor=#666666;fontColor=#333333;fontStyle=1;fontSize=16;" vertex="1" visible="0" parent="2">
            <mxGeometry x="240" y="720" width="160" height="40" as="geometry" />
          </mxCell>
        </UserObject>
        <UserObject label="Sequence Diagram" link="data:action/json,{&quot;actions&quot;:[{&quot;toggle&quot;:{&quot;cells&quot;:[&quot;HCNqZcL4kCL4rz3BPRrv-16&quot;]}}]}" id="HCNqZcL4kCL4rz3BPRrv-16">
          <mxCell style="rounded=1;whiteSpace=wrap;html=1;fillColor=#f5f5f5;strokeColor=#666666;fontColor=#333333;fontStyle=1;fontSize=16;" vertex="1" visible="0" parent="2">
            <mxGeometry x="240" y="720" width="160" height="40" as="geometry" />
          </mxCell>
        </UserObject>
        <UserObject label="Sequence&lt;span style=&quot;background-color: transparent;&quot;&gt;&amp;nbsp;Diagram&lt;/span&gt;" link="data:action/json,{&quot;actions&quot;:[{&quot;toggle&quot;:{&quot;cells&quot;:[&quot;HCNqZcL4kCL4rz3BPRrv-18&quot;]}}]}" id="HCNqZcL4kCL4rz3BPRrv-18">
          <mxCell style="rounded=1;whiteSpace=wrap;html=1;fillColor=#f5f5f5;strokeColor=#666666;fontStyle=1;fontSize=16;fontColor=#000000;" vertex="1" visible="0" parent="2">
            <mxGeometry x="240" y="720" width="160" height="40" as="geometry" />
          </mxCell>
        </UserObject>
        <UserObject label="Sequence&lt;span style=&quot;background-color: transparent;&quot;&gt;&amp;nbsp;Diagram&lt;/span&gt;" link="data:action/json,{&quot;actions&quot;:[{&quot;toggle&quot;:{&quot;cells&quot;:[&quot;2&quot;]}}]}" id="HCNqZcL4kCL4rz3BPRrv-20">
          <mxCell style="rounded=1;whiteSpace=wrap;html=1;fillColor=#f5f5f5;strokeColor=#666666;fontColor=#000000;fontStyle=1;fontSize=16;" vertex="1" parent="2">
            <mxGeometry x="-160" y="160" width="160" height="40" as="geometry" />
          </mxCell>
        </UserObject>
        <mxCell id="1" value="CD" style="" parent="0" />
        <mxCell id="HCNqZcL4kCL4rz3BPRrv-2" value="" style="group;fillColor=default;editable=1;movable=1;resizable=1;rotatable=1;deletable=1;locked=0;connectable=1;opacity=90;" vertex="1" connectable="0" parent="1">
          <mxGeometry x="50" y="80" width="588" height="398" as="geometry" />
        </mxCell>
        <mxCell id="weUlzYjcoEggziX_K7JL-1" value="Person" style="swimlane;fontStyle=2;align=center;verticalAlign=top;childLayout=stackLayout;horizontal=1;startSize=26;horizontalStack=0;resizeParent=1;resizeLast=0;collapsible=1;marginBottom=0;rounded=0;shadow=0;strokeWidth=1;fillColor=#f8cecc;strokeColor=#b85450;editable=1;movable=1;resizable=1;rotatable=1;deletable=1;locked=0;connectable=1;" vertex="1" parent="HCNqZcL4kCL4rz3BPRrv-2">
          <mxGeometry x="140" width="160" height="138" as="geometry">
            <mxRectangle x="230" y="140" width="160" height="26" as="alternateBounds" />
          </mxGeometry>
        </mxCell>
        <mxCell id="weUlzYjcoEggziX_K7JL-2" value="+name: str" style="text;align=left;verticalAlign=top;spacingLeft=4;spacingRight=4;overflow=hidden;rotatable=1;points=[[0,0.5],[1,0.5]];portConstraint=eastwest;editable=1;movable=1;resizable=1;deletable=1;locked=0;connectable=1;" vertex="1" parent="weUlzYjcoEggziX_K7JL-1">
          <mxGeometry y="26" width="160" height="26" as="geometry" />
        </mxCell>
        <mxCell id="weUlzYjcoEggziX_K7JL-3" value="+phoneNumber: str" style="text;align=left;verticalAlign=top;spacingLeft=4;spacingRight=4;overflow=hidden;rotatable=1;points=[[0,0.5],[1,0.5]];portConstraint=eastwest;rounded=0;shadow=0;html=0;editable=1;movable=1;resizable=1;deletable=1;locked=0;connectable=1;" vertex="1" parent="weUlzYjcoEggziX_K7JL-1">
          <mxGeometry y="52" width="160" height="26" as="geometry" />
        </mxCell>
        <mxCell id="weUlzYjcoEggziX_K7JL-4" value="+emailAddress: str" style="text;align=left;verticalAlign=top;spacingLeft=4;spacingRight=4;overflow=hidden;rotatable=1;points=[[0,0.5],[1,0.5]];portConstraint=eastwest;rounded=0;shadow=0;html=0;editable=1;movable=1;resizable=1;deletable=1;locked=0;connectable=1;" vertex="1" parent="weUlzYjcoEggziX_K7JL-1">
          <mxGeometry y="78" width="160" height="26" as="geometry" />
        </mxCell>
        <mxCell id="weUlzYjcoEggziX_K7JL-5" value="" style="line;html=1;strokeWidth=1;align=left;verticalAlign=middle;spacingTop=-1;spacingLeft=3;spacingRight=3;rotatable=1;labelPosition=right;points=[];portConstraint=eastwest;editable=1;movable=1;resizable=1;deletable=1;locked=0;connectable=1;" vertex="1" parent="weUlzYjcoEggziX_K7JL-1">
          <mxGeometry y="104" width="160" height="8" as="geometry" />
        </mxCell>
        <mxCell id="weUlzYjcoEggziX_K7JL-6" value="+purchaseParkingPass()" style="text;align=left;verticalAlign=top;spacingLeft=4;spacingRight=4;overflow=hidden;rotatable=1;points=[[0,0.5],[1,0.5]];portConstraint=eastwest;editable=1;movable=1;resizable=1;deletable=1;locked=0;connectable=1;" vertex="1" parent="weUlzYjcoEggziX_K7JL-1">
          <mxGeometry y="112" width="160" height="26" as="geometry" />
        </mxCell>
        <mxCell id="weUlzYjcoEggziX_K7JL-7" value="Student" style="swimlane;fontStyle=0;align=center;verticalAlign=top;childLayout=stackLayout;horizontal=1;startSize=26;horizontalStack=0;resizeParent=1;resizeLast=0;collapsible=1;marginBottom=0;rounded=0;shadow=0;strokeWidth=1;fillColor=#ffe6cc;strokeColor=#d79b00;editable=1;movable=1;resizable=1;rotatable=1;deletable=1;locked=0;connectable=1;" vertex="1" parent="HCNqZcL4kCL4rz3BPRrv-2">
          <mxGeometry y="260" width="160" height="138" as="geometry">
            <mxRectangle x="130" y="380" width="160" height="26" as="alternateBounds" />
          </mxGeometry>
        </mxCell>
        <mxCell id="weUlzYjcoEggziX_K7JL-8" value="+studentNumber: int" style="text;align=left;verticalAlign=top;spacingLeft=4;spacingRight=4;overflow=hidden;rotatable=1;points=[[0,0.5],[1,0.5]];portConstraint=eastwest;fontStyle=0;editable=1;movable=1;resizable=1;deletable=1;locked=0;connectable=1;" vertex="1" parent="weUlzYjcoEggziX_K7JL-7">
          <mxGeometry y="26" width="160" height="26" as="geometry" />
        </mxCell>
        <mxCell id="weUlzYjcoEggziX_K7JL-9" value="+averageMark: int" style="text;align=left;verticalAlign=top;spacingLeft=4;spacingRight=4;overflow=hidden;rotatable=1;points=[[0,0.5],[1,0.5]];portConstraint=eastwest;rounded=0;shadow=0;html=0;editable=1;movable=1;resizable=1;deletable=1;locked=0;connectable=1;" vertex="1" parent="weUlzYjcoEggziX_K7JL-7">
          <mxGeometry y="52" width="160" height="26" as="geometry" />
        </mxCell>
        <mxCell id="weUlzYjcoEggziX_K7JL-10" value="" style="line;html=1;strokeWidth=1;align=left;verticalAlign=middle;spacingTop=-1;spacingLeft=3;spacingRight=3;rotatable=1;labelPosition=right;points=[];portConstraint=eastwest;editable=1;movable=1;resizable=1;deletable=1;locked=0;connectable=1;" vertex="1" parent="weUlzYjcoEggziX_K7JL-7">
          <mxGeometry y="78" width="160" height="8" as="geometry" />
        </mxCell>
        <mxCell id="weUlzYjcoEggziX_K7JL-11" value="+isEligibleToEnroll(str): bool" style="text;align=left;verticalAlign=top;spacingLeft=4;spacingRight=4;overflow=hidden;rotatable=1;points=[[0,0.5],[1,0.5]];portConstraint=eastwest;fontStyle=4;editable=1;movable=1;resizable=1;deletable=1;locked=0;connectable=1;" vertex="1" parent="weUlzYjcoEggziX_K7JL-7">
          <mxGeometry y="86" width="160" height="26" as="geometry" />
        </mxCell>
        <mxCell id="weUlzYjcoEggziX_K7JL-12" value="+getSeminarsTaken(): int" style="text;align=left;verticalAlign=top;spacingLeft=4;spacingRight=4;overflow=hidden;rotatable=1;points=[[0,0.5],[1,0.5]];portConstraint=eastwest;editable=1;movable=1;resizable=1;deletable=1;locked=0;connectable=1;" vertex="1" parent="weUlzYjcoEggziX_K7JL-7">
          <mxGeometry y="112" width="160" height="26" as="geometry" />
        </mxCell>
        <mxCell id="weUlzYjcoEggziX_K7JL-13" value="" style="endArrow=block;endSize=10;endFill=0;shadow=0;strokeWidth=1;rounded=0;edgeStyle=elbowEdgeStyle;elbow=vertical;editable=1;movable=1;resizable=1;rotatable=1;deletable=1;locked=0;connectable=1;" edge="1" parent="HCNqZcL4kCL4rz3BPRrv-2" source="weUlzYjcoEggziX_K7JL-7" target="weUlzYjcoEggziX_K7JL-1">
          <mxGeometry width="160" relative="1" as="geometry">
            <mxPoint x="120" y="83" as="sourcePoint" />
            <mxPoint x="120" y="83" as="targetPoint" />
          </mxGeometry>
        </mxCell>
        <mxCell id="weUlzYjcoEggziX_K7JL-14" value="Professor" style="swimlane;fontStyle=0;align=center;verticalAlign=top;childLayout=stackLayout;horizontal=1;startSize=26;horizontalStack=0;resizeParent=1;resizeLast=0;collapsible=1;marginBottom=0;rounded=0;shadow=0;strokeWidth=1;fillColor=#fff2cc;strokeColor=#d6b656;editable=1;movable=1;resizable=1;rotatable=1;deletable=1;locked=0;connectable=1;" vertex="1" parent="HCNqZcL4kCL4rz3BPRrv-2">
          <mxGeometry x="300" y="260" width="160" height="138" as="geometry">
            <mxRectangle x="340" y="380" width="170" height="26" as="alternateBounds" />
          </mxGeometry>
        </mxCell>
        <mxCell id="weUlzYjcoEggziX_K7JL-15" value="/salary: int" style="text;align=left;verticalAlign=top;spacingLeft=4;spacingRight=4;overflow=hidden;rotatable=1;points=[[0,0.5],[1,0.5]];portConstraint=eastwest;editable=1;movable=1;resizable=1;deletable=1;locked=0;connectable=1;" vertex="1" parent="weUlzYjcoEggziX_K7JL-14">
          <mxGeometry y="26" width="160" height="26" as="geometry" />
        </mxCell>
        <mxCell id="weUlzYjcoEggziX_K7JL-16" value="#staffNumber: int" style="text;align=left;verticalAlign=top;spacingLeft=4;spacingRight=4;overflow=hidden;rotatable=1;points=[[0,0.5],[1,0.5]];portConstraint=eastwest;editable=1;movable=1;resizable=1;deletable=1;locked=0;connectable=1;" vertex="1" parent="weUlzYjcoEggziX_K7JL-14">
          <mxGeometry y="52" width="160" height="26" as="geometry" />
        </mxCell>
        <mxCell id="weUlzYjcoEggziX_K7JL-17" value="-yearsOfService: int" style="text;align=left;verticalAlign=top;spacingLeft=4;spacingRight=4;overflow=hidden;rotatable=1;points=[[0,0.5],[1,0.5]];portConstraint=eastwest;editable=1;movable=1;resizable=1;deletable=1;locked=0;connectable=1;" vertex="1" parent="weUlzYjcoEggziX_K7JL-14">
          <mxGeometry y="78" width="160" height="26" as="geometry" />
        </mxCell>
        <mxCell id="weUlzYjcoEggziX_K7JL-18" value="+numberOfClasses: int" style="text;align=left;verticalAlign=top;spacingLeft=4;spacingRight=4;overflow=hidden;rotatable=1;points=[[0,0.5],[1,0.5]];portConstraint=eastwest;editable=1;movable=1;resizable=1;deletable=1;locked=0;connectable=1;" vertex="1" parent="weUlzYjcoEggziX_K7JL-14">
          <mxGeometry y="104" width="160" height="26" as="geometry" />
        </mxCell>
        <mxCell id="weUlzYjcoEggziX_K7JL-19" value="" style="line;html=1;strokeWidth=1;align=left;verticalAlign=middle;spacingTop=-1;spacingLeft=3;spacingRight=3;rotatable=1;labelPosition=right;points=[];portConstraint=eastwest;editable=1;movable=1;resizable=1;deletable=1;locked=0;connectable=1;" vertex="1" parent="weUlzYjcoEggziX_K7JL-14">
          <mxGeometry y="130" width="160" height="8" as="geometry" />
        </mxCell>
        <mxCell id="weUlzYjcoEggziX_K7JL-20" value="" style="endArrow=block;endSize=10;endFill=0;shadow=0;strokeWidth=1;rounded=0;edgeStyle=elbowEdgeStyle;elbow=vertical;editable=1;movable=1;resizable=1;rotatable=1;deletable=1;locked=0;connectable=1;" edge="1" parent="HCNqZcL4kCL4rz3BPRrv-2" source="weUlzYjcoEggziX_K7JL-14" target="weUlzYjcoEggziX_K7JL-1">
          <mxGeometry width="160" relative="1" as="geometry">
            <mxPoint x="130" y="253" as="sourcePoint" />
            <mxPoint x="230" y="151" as="targetPoint" />
          </mxGeometry>
        </mxCell>
        <mxCell id="weUlzYjcoEggziX_K7JL-21" value="Address" style="swimlane;fontStyle=0;align=center;verticalAlign=top;childLayout=stackLayout;horizontal=1;startSize=26;horizontalStack=0;resizeParent=1;resizeLast=0;collapsible=1;marginBottom=0;rounded=0;shadow=0;strokeWidth=1;fillColor=#dae8fc;strokeColor=#6c8ebf;editable=1;movable=1;resizable=1;rotatable=1;deletable=1;locked=0;connectable=1;" vertex="1" parent="HCNqZcL4kCL4rz3BPRrv-2">
          <mxGeometry x="428" width="160" height="216" as="geometry">
            <mxRectangle x="550" y="140" width="160" height="26" as="alternateBounds" />
          </mxGeometry>
        </mxCell>
        <mxCell id="weUlzYjcoEggziX_K7JL-22" value="+street: str" style="text;align=left;verticalAlign=top;spacingLeft=4;spacingRight=4;overflow=hidden;rotatable=1;points=[[0,0.5],[1,0.5]];portConstraint=eastwest;editable=1;movable=1;resizable=1;deletable=1;locked=0;connectable=1;" vertex="1" parent="weUlzYjcoEggziX_K7JL-21">
          <mxGeometry y="26" width="160" height="26" as="geometry" />
        </mxCell>
        <mxCell id="weUlzYjcoEggziX_K7JL-23" value="+city: str" style="text;align=left;verticalAlign=top;spacingLeft=4;spacingRight=4;overflow=hidden;rotatable=1;points=[[0,0.5],[1,0.5]];portConstraint=eastwest;rounded=0;shadow=0;html=0;editable=1;movable=1;resizable=1;deletable=1;locked=0;connectable=1;" vertex="1" parent="weUlzYjcoEggziX_K7JL-21">
          <mxGeometry y="52" width="160" height="26" as="geometry" />
        </mxCell>
        <mxCell id="weUlzYjcoEggziX_K7JL-24" value="+state: str" style="text;align=left;verticalAlign=top;spacingLeft=4;spacingRight=4;overflow=hidden;rotatable=1;points=[[0,0.5],[1,0.5]];portConstraint=eastwest;rounded=0;shadow=0;html=0;editable=1;movable=1;resizable=1;deletable=1;locked=0;connectable=1;" vertex="1" parent="weUlzYjcoEggziX_K7JL-21">
          <mxGeometry y="78" width="160" height="26" as="geometry" />
        </mxCell>
        <mxCell id="weUlzYjcoEggziX_K7JL-25" value="+postalCode: int" style="text;align=left;verticalAlign=top;spacingLeft=4;spacingRight=4;overflow=hidden;rotatable=1;points=[[0,0.5],[1,0.5]];portConstraint=eastwest;rounded=0;shadow=0;html=0;editable=1;movable=1;resizable=1;deletable=1;locked=0;connectable=1;" vertex="1" parent="weUlzYjcoEggziX_K7JL-21">
          <mxGeometry y="104" width="160" height="26" as="geometry" />
        </mxCell>
        <mxCell id="weUlzYjcoEggziX_K7JL-26" value="+country: str" style="text;align=left;verticalAlign=top;spacingLeft=4;spacingRight=4;overflow=hidden;rotatable=1;points=[[0,0.5],[1,0.5]];portConstraint=eastwest;rounded=0;shadow=0;html=0;editable=1;movable=1;resizable=1;deletable=1;locked=0;connectable=1;" vertex="1" parent="weUlzYjcoEggziX_K7JL-21">
          <mxGeometry y="130" width="160" height="26" as="geometry" />
        </mxCell>
        <mxCell id="weUlzYjcoEggziX_K7JL-27" value="" style="line;html=1;strokeWidth=1;align=left;verticalAlign=middle;spacingTop=-1;spacingLeft=3;spacingRight=3;rotatable=1;labelPosition=right;points=[];portConstraint=eastwest;editable=1;movable=1;resizable=1;deletable=1;locked=0;connectable=1;" vertex="1" parent="weUlzYjcoEggziX_K7JL-21">
          <mxGeometry y="156" width="160" height="8" as="geometry" />
        </mxCell>
        <mxCell id="weUlzYjcoEggziX_K7JL-28" value="-validate(): bool" style="text;align=left;verticalAlign=top;spacingLeft=4;spacingRight=4;overflow=hidden;rotatable=1;points=[[0,0.5],[1,0.5]];portConstraint=eastwest;editable=1;movable=1;resizable=1;deletable=1;locked=0;connectable=1;" vertex="1" parent="weUlzYjcoEggziX_K7JL-21">
          <mxGeometry y="164" width="160" height="26" as="geometry" />
        </mxCell>
        <mxCell id="weUlzYjcoEggziX_K7JL-29" value="+outputAsLabel(): str" style="text;align=left;verticalAlign=top;spacingLeft=4;spacingRight=4;overflow=hidden;rotatable=1;points=[[0,0.5],[1,0.5]];portConstraint=eastwest;editable=1;movable=1;resizable=1;deletable=1;locked=0;connectable=1;" vertex="1" parent="weUlzYjcoEggziX_K7JL-21">
          <mxGeometry y="190" width="160" height="26" as="geometry" />
        </mxCell>
        <mxCell id="weUlzYjcoEggziX_K7JL-30" value="" style="endArrow=open;shadow=0;strokeWidth=1;rounded=0;endFill=1;edgeStyle=elbowEdgeStyle;elbow=vertical;editable=1;movable=1;resizable=1;rotatable=1;deletable=1;locked=0;connectable=1;" edge="1" parent="HCNqZcL4kCL4rz3BPRrv-2" source="weUlzYjcoEggziX_K7JL-1" target="weUlzYjcoEggziX_K7JL-21">
          <mxGeometry x="0.5" y="41" relative="1" as="geometry">
            <mxPoint x="300" y="72" as="sourcePoint" />
            <mxPoint x="460" y="72" as="targetPoint" />
            <mxPoint x="-40" y="32" as="offset" />
          </mxGeometry>
        </mxCell>
        <mxCell id="weUlzYjcoEggziX_K7JL-31" value="0..1" style="resizable=1;align=left;verticalAlign=bottom;labelBackgroundColor=none;fontSize=12;editable=1;movable=1;rotatable=1;deletable=1;locked=0;connectable=1;" connectable="0" vertex="1" parent="weUlzYjcoEggziX_K7JL-30">
          <mxGeometry x="-1" relative="1" as="geometry">
            <mxPoint y="1" as="offset" />
          </mxGeometry>
        </mxCell>
        <mxCell id="weUlzYjcoEggziX_K7JL-32" value="1" style="resizable=1;align=right;verticalAlign=bottom;labelBackgroundColor=none;fontSize=12;editable=1;movable=1;rotatable=1;deletable=1;locked=0;connectable=1;" connectable="0" vertex="1" parent="weUlzYjcoEggziX_K7JL-30">
          <mxGeometry x="1" relative="1" as="geometry">
            <mxPoint x="-7" y="21" as="offset" />
          </mxGeometry>
        </mxCell>
        <mxCell id="weUlzYjcoEggziX_K7JL-33" value="lives at" style="text;html=1;resizable=1;points=[];;align=center;verticalAlign=middle;labelBackgroundColor=none;rounded=0;shadow=0;strokeWidth=1;fontSize=12;editable=1;movable=1;rotatable=1;deletable=1;locked=0;connectable=1;" vertex="1" connectable="0" parent="weUlzYjcoEggziX_K7JL-30">
          <mxGeometry x="0.5" y="49" relative="1" as="geometry">
            <mxPoint x="-38" y="40" as="offset" />
          </mxGeometry>
        </mxCell>
        <mxCell id="weUlzYjcoEggziX_K7JL-34" value="supervises" style="edgeStyle=orthogonalEdgeStyle;rounded=0;orthogonalLoop=1;jettySize=auto;html=1;entryX=1;entryY=0.5;entryDx=0;entryDy=0;endArrow=open;endFill=0;editable=1;movable=1;resizable=1;rotatable=1;deletable=1;locked=0;connectable=1;" edge="1" parent="HCNqZcL4kCL4rz3BPRrv-2" source="weUlzYjcoEggziX_K7JL-15" target="weUlzYjcoEggziX_K7JL-8">
          <mxGeometry y="-9" relative="1" as="geometry">
            <mxPoint as="offset" />
          </mxGeometry>
        </mxCell>
        <mxCell id="weUlzYjcoEggziX_K7JL-35" value="0...*" style="edgeLabel;html=1;align=center;verticalAlign=middle;resizable=1;points=[];editable=1;movable=1;rotatable=1;deletable=1;locked=0;connectable=1;" vertex="1" connectable="0" parent="weUlzYjcoEggziX_K7JL-34">
          <mxGeometry x="0.8857" y="-2" relative="1" as="geometry">
            <mxPoint x="12" y="-11" as="offset" />
          </mxGeometry>
        </mxCell>
        <mxCell id="weUlzYjcoEggziX_K7JL-36" value="1...5" style="edgeLabel;html=1;align=center;verticalAlign=middle;resizable=1;points=[];editable=1;movable=1;rotatable=1;deletable=1;locked=0;connectable=1;" vertex="1" connectable="0" parent="weUlzYjcoEggziX_K7JL-34">
          <mxGeometry x="-0.8286" relative="1" as="geometry">
            <mxPoint y="11" as="offset" />
          </mxGeometry>
        </mxCell>
        <UserObject label="Class Diagram" link="data:action/json,{&quot;actions&quot;:[{&quot;toggle&quot;:{&quot;cells&quot;:[&quot;1&quot;]}}]}" id="HCNqZcL4kCL4rz3BPRrv-13">
          <mxCell style="rounded=1;whiteSpace=wrap;html=1;fontStyle=1;fontSize=16;fillColor=#f5f5f5;fontColor=#333333;strokeColor=#666666;" vertex="1" parent="1">
            <mxGeometry x="-160" y="80" width="160" height="40" as="geometry" />
          </mxCell>
        </UserObject>
        <mxCell id="nzxG6WZNK3N5pS7Whlxj-7" value="" style="endArrow=none;html=1;rounded=0;" edge="1" parent="1" source="HCNqZcL4kCL4rz3BPRrv-2" target="aQj23zJHS7Z3aVL87T_N-25">
          <mxGeometry width="50" height="50" relative="1" as="geometry">
            <mxPoint x="870" y="470" as="sourcePoint" />
            <mxPoint x="920" y="420" as="targetPoint" />
          </mxGeometry>
        </mxCell>
        <mxCell id="nzxG6WZNK3N5pS7Whlxj-8" value="" style="endArrow=none;html=1;rounded=0;" edge="1" parent="1" source="HCNqZcL4kCL4rz3BPRrv-7" target="aQj23zJHS7Z3aVL87T_N-25">
          <mxGeometry width="50" height="50" relative="1" as="geometry">
            <mxPoint x="870" y="470" as="sourcePoint" />
            <mxPoint x="920" y="420" as="targetPoint" />
          </mxGeometry>
        </mxCell>
      </root>
    </mxGraphModel>
  </diagram>
  <diagram id="3xLIz28CqyxVf3Fm-4fP" name="tools">
    <mxGraphModel dx="2066" dy="1057" grid="1" gridSize="10" guides="1" tooltips="1" connect="1" arrows="1" fold="1" page="1" pageScale="1" pageWidth="850" pageHeight="1100" math="0" shadow="0">
      <root>
        <mxCell id="0" />
        <mxCell id="1" parent="0" />
        <mxCell id="rfesP-KTpIgR2fpJ6teb-46" value="Person" style="swimlane;fontStyle=1;align=center;verticalAlign=top;childLayout=stackLayout;horizontal=1;startSize=40;horizontalStack=0;resizeParent=1;resizeParentMax=0;resizeLast=0;collapsible=0;marginBottom=0;" parent="1" vertex="1">
          <mxGeometry x="447" y="641" width="147" height="168" as="geometry" />
        </mxCell>
        <mxCell id="rfesP-KTpIgR2fpJ6teb-47" value="+String name" style="text;strokeColor=none;fillColor=none;align=left;verticalAlign=top;spacingLeft=4;spacingRight=4;overflow=hidden;rotatable=0;points=[[0,0.5],[1,0.5]];portConstraint=eastwest;" parent="rfesP-KTpIgR2fpJ6teb-46" vertex="1">
          <mxGeometry y="40" width="147" height="40" as="geometry" />
        </mxCell>
        <mxCell id="rfesP-KTpIgR2fpJ6teb-48" value="+int age" style="text;strokeColor=none;fillColor=none;align=left;verticalAlign=top;spacingLeft=4;spacingRight=4;overflow=hidden;rotatable=0;points=[[0,0.5],[1,0.5]];portConstraint=eastwest;" parent="rfesP-KTpIgR2fpJ6teb-46" vertex="1">
          <mxGeometry y="80" width="147" height="40" as="geometry" />
        </mxCell>
        <mxCell id="rfesP-KTpIgR2fpJ6teb-49" style="line;strokeWidth=1;fillColor=none;align=left;verticalAlign=middle;spacingTop=-1;spacingLeft=3;spacingRight=3;rotatable=0;labelPosition=right;points=[];portConstraint=eastwest;strokeColor=inherit;" parent="rfesP-KTpIgR2fpJ6teb-46" vertex="1">
          <mxGeometry y="120" width="147" height="8" as="geometry" />
        </mxCell>
        <mxCell id="rfesP-KTpIgR2fpJ6teb-50" value="+introduce()" style="text;strokeColor=none;fillColor=none;align=left;verticalAlign=top;spacingLeft=4;spacingRight=4;overflow=hidden;rotatable=0;points=[[0,0.5],[1,0.5]];portConstraint=eastwest;" parent="rfesP-KTpIgR2fpJ6teb-46" vertex="1">
          <mxGeometry y="128" width="147" height="40" as="geometry" />
        </mxCell>
        <mxCell id="rfesP-KTpIgR2fpJ6teb-51" value="Student" style="swimlane;fontStyle=1;align=center;verticalAlign=top;childLayout=stackLayout;horizontal=1;startSize=45.333333333333336;horizontalStack=0;resizeParent=1;resizeParentMax=0;resizeLast=0;collapsible=0;marginBottom=0;" parent="1" vertex="1">
          <mxGeometry x="147" y="426" width="164" height="143.33333333333334" as="geometry" />
        </mxCell>
        <mxCell id="rfesP-KTpIgR2fpJ6teb-52" value="+int studentId" style="text;strokeColor=none;fillColor=none;align=left;verticalAlign=top;spacingLeft=4;spacingRight=4;overflow=hidden;rotatable=0;points=[[0,0.5],[1,0.5]];portConstraint=eastwest;" parent="rfesP-KTpIgR2fpJ6teb-51" vertex="1">
          <mxGeometry y="45.333333333333336" width="164" height="45" as="geometry" />
        </mxCell>
        <mxCell id="rfesP-KTpIgR2fpJ6teb-53" style="line;strokeWidth=1;fillColor=none;align=left;verticalAlign=middle;spacingTop=-1;spacingLeft=3;spacingRight=3;rotatable=0;labelPosition=right;points=[];portConstraint=eastwest;strokeColor=inherit;" parent="rfesP-KTpIgR2fpJ6teb-51" vertex="1">
          <mxGeometry y="90.33333333333334" width="164" height="8" as="geometry" />
        </mxCell>
        <mxCell id="rfesP-KTpIgR2fpJ6teb-54" value="+enroll(Course)" style="text;strokeColor=none;fillColor=none;align=left;verticalAlign=top;spacingLeft=4;spacingRight=4;overflow=hidden;rotatable=0;points=[[0,0.5],[1,0.5]];portConstraint=eastwest;" parent="rfesP-KTpIgR2fpJ6teb-51" vertex="1">
          <mxGeometry y="98.33333333333334" width="164" height="45" as="geometry" />
        </mxCell>
        <mxCell id="rfesP-KTpIgR2fpJ6teb-55" value="Teacher" style="swimlane;fontStyle=1;align=center;verticalAlign=top;childLayout=stackLayout;horizontal=1;startSize=45.333333333333336;horizontalStack=0;resizeParent=1;resizeParentMax=0;resizeLast=0;collapsible=0;marginBottom=0;" parent="1" vertex="1">
          <mxGeometry x="530" y="426" width="160" height="143.33333333333334" as="geometry" />
        </mxCell>
        <mxCell id="rfesP-KTpIgR2fpJ6teb-56" value="+String subject" style="text;strokeColor=none;fillColor=none;align=left;verticalAlign=top;spacingLeft=4;spacingRight=4;overflow=hidden;rotatable=0;points=[[0,0.5],[1,0.5]];portConstraint=eastwest;" parent="rfesP-KTpIgR2fpJ6teb-55" vertex="1">
          <mxGeometry y="45.333333333333336" width="160" height="45" as="geometry" />
        </mxCell>
        <mxCell id="rfesP-KTpIgR2fpJ6teb-57" style="line;strokeWidth=1;fillColor=none;align=left;verticalAlign=middle;spacingTop=-1;spacingLeft=3;spacingRight=3;rotatable=0;labelPosition=right;points=[];portConstraint=eastwest;strokeColor=inherit;" parent="rfesP-KTpIgR2fpJ6teb-55" vertex="1">
          <mxGeometry y="90.33333333333334" width="160" height="8" as="geometry" />
        </mxCell>
        <mxCell id="rfesP-KTpIgR2fpJ6teb-58" value="+teach()" style="text;strokeColor=none;fillColor=none;align=left;verticalAlign=top;spacingLeft=4;spacingRight=4;overflow=hidden;rotatable=0;points=[[0,0.5],[1,0.5]];portConstraint=eastwest;" parent="rfesP-KTpIgR2fpJ6teb-55" vertex="1">
          <mxGeometry y="98.33333333333334" width="160" height="45" as="geometry" />
        </mxCell>
        <mxCell id="rfesP-KTpIgR2fpJ6teb-59" value="Course" style="swimlane;fontStyle=1;align=center;verticalAlign=top;childLayout=stackLayout;horizontal=1;startSize=45.333333333333336;horizontalStack=0;resizeParent=1;resizeParentMax=0;resizeLast=0;collapsible=0;marginBottom=0;" parent="1" vertex="1">
          <mxGeometry x="199" y="653" width="198" height="143.33333333333334" as="geometry" />
        </mxCell>
        <mxCell id="rfesP-KTpIgR2fpJ6teb-60" value="+String courseName" style="text;strokeColor=none;fillColor=none;align=left;verticalAlign=top;spacingLeft=4;spacingRight=4;overflow=hidden;rotatable=0;points=[[0,0.5],[1,0.5]];portConstraint=eastwest;" parent="rfesP-KTpIgR2fpJ6teb-59" vertex="1">
          <mxGeometry y="45.333333333333336" width="198" height="45" as="geometry" />
        </mxCell>
        <mxCell id="rfesP-KTpIgR2fpJ6teb-61" style="line;strokeWidth=1;fillColor=none;align=left;verticalAlign=middle;spacingTop=-1;spacingLeft=3;spacingRight=3;rotatable=0;labelPosition=right;points=[];portConstraint=eastwest;strokeColor=inherit;" parent="rfesP-KTpIgR2fpJ6teb-59" vertex="1">
          <mxGeometry y="90.33333333333334" width="198" height="8" as="geometry" />
        </mxCell>
        <mxCell id="rfesP-KTpIgR2fpJ6teb-62" value="+start()" style="text;strokeColor=none;fillColor=none;align=left;verticalAlign=top;spacingLeft=4;spacingRight=4;overflow=hidden;rotatable=0;points=[[0,0.5],[1,0.5]];portConstraint=eastwest;" parent="rfesP-KTpIgR2fpJ6teb-59" vertex="1">
          <mxGeometry y="98.33333333333334" width="198" height="45" as="geometry" />
        </mxCell>
        <mxCell id="rfesP-KTpIgR2fpJ6teb-63" value="Department" style="swimlane;fontStyle=1;align=center;verticalAlign=top;childLayout=stackLayout;horizontal=1;startSize=45.333333333333336;horizontalStack=0;resizeParent=1;resizeParentMax=0;resizeLast=0;collapsible=0;marginBottom=0;" parent="1" vertex="1">
          <mxGeometry x="486" y="211" width="248" height="143.33333333333334" as="geometry" />
        </mxCell>
        <mxCell id="rfesP-KTpIgR2fpJ6teb-64" value="+String departmentName" style="text;strokeColor=none;fillColor=none;align=left;verticalAlign=top;spacingLeft=4;spacingRight=4;overflow=hidden;rotatable=0;points=[[0,0.5],[1,0.5]];portConstraint=eastwest;" parent="rfesP-KTpIgR2fpJ6teb-63" vertex="1">
          <mxGeometry y="45.333333333333336" width="248" height="45" as="geometry" />
        </mxCell>
        <mxCell id="rfesP-KTpIgR2fpJ6teb-65" style="line;strokeWidth=1;fillColor=none;align=left;verticalAlign=middle;spacingTop=-1;spacingLeft=3;spacingRight=3;rotatable=0;labelPosition=right;points=[];portConstraint=eastwest;strokeColor=inherit;" parent="rfesP-KTpIgR2fpJ6teb-63" vertex="1">
          <mxGeometry y="90.33333333333334" width="248" height="8" as="geometry" />
        </mxCell>
        <mxCell id="rfesP-KTpIgR2fpJ6teb-66" value="+addTeacher(Teacher)" style="text;strokeColor=none;fillColor=none;align=left;verticalAlign=top;spacingLeft=4;spacingRight=4;overflow=hidden;rotatable=0;points=[[0,0.5],[1,0.5]];portConstraint=eastwest;" parent="rfesP-KTpIgR2fpJ6teb-63" vertex="1">
          <mxGeometry y="98.33333333333334" width="248" height="45" as="geometry" />
        </mxCell>
        <mxCell id="rfesP-KTpIgR2fpJ6teb-67" value="School" style="swimlane;fontStyle=1;align=center;verticalAlign=top;childLayout=stackLayout;horizontal=1;startSize=44.8;horizontalStack=0;resizeParent=1;resizeParentMax=0;resizeLast=0;collapsible=0;marginBottom=0;" parent="1" vertex="1">
          <mxGeometry x="513" y="20" width="195" height="111.8" as="geometry" />
        </mxCell>
        <mxCell id="rfesP-KTpIgR2fpJ6teb-68" value="+String schoolName" style="text;strokeColor=none;fillColor=none;align=left;verticalAlign=top;spacingLeft=4;spacingRight=4;overflow=hidden;rotatable=0;points=[[0,0.5],[1,0.5]];portConstraint=eastwest;" parent="rfesP-KTpIgR2fpJ6teb-67" vertex="1">
          <mxGeometry y="44.8" width="195" height="45" as="geometry" />
        </mxCell>
        <mxCell id="rfesP-KTpIgR2fpJ6teb-69" style="line;strokeWidth=1;fillColor=none;align=left;verticalAlign=middle;spacingTop=-1;spacingLeft=3;spacingRight=3;rotatable=0;labelPosition=right;points=[];portConstraint=eastwest;strokeColor=inherit;" parent="rfesP-KTpIgR2fpJ6teb-67" vertex="1">
          <mxGeometry y="89.8" width="195" height="22" as="geometry" />
        </mxCell>
        <mxCell id="rfesP-KTpIgR2fpJ6teb-70" value="IEmployee" style="swimlane;fontStyle=1;align=center;verticalAlign=top;childLayout=stackLayout;horizontal=1;startSize=47.2;horizontalStack=0;resizeParent=1;resizeParentMax=0;resizeLast=0;collapsible=0;marginBottom=0;" parent="1" vertex="1">
          <mxGeometry x="644" y="662" width="152" height="102.2" as="geometry" />
        </mxCell>
        <mxCell id="rfesP-KTpIgR2fpJ6teb-71" style="line;strokeWidth=1;fillColor=none;align=left;verticalAlign=middle;spacingTop=-1;spacingLeft=3;spacingRight=3;rotatable=0;labelPosition=right;points=[];portConstraint=eastwest;strokeColor=inherit;" parent="rfesP-KTpIgR2fpJ6teb-70" vertex="1">
          <mxGeometry y="47.2" width="152" height="8" as="geometry" />
        </mxCell>
        <mxCell id="rfesP-KTpIgR2fpJ6teb-72" value="+getSalary()" style="text;strokeColor=none;fillColor=none;align=left;verticalAlign=top;spacingLeft=4;spacingRight=4;overflow=hidden;rotatable=0;points=[[0,0.5],[1,0.5]];portConstraint=eastwest;" parent="rfesP-KTpIgR2fpJ6teb-70" vertex="1">
          <mxGeometry y="55.2" width="152" height="47" as="geometry" />
        </mxCell>
        <mxCell id="rfesP-KTpIgR2fpJ6teb-73" value="Exam" style="swimlane;fontStyle=1;align=center;verticalAlign=top;childLayout=stackLayout;horizontal=1;startSize=47.2;horizontalStack=0;resizeParent=1;resizeParentMax=0;resizeLast=0;collapsible=0;marginBottom=0;" parent="1" vertex="1">
          <mxGeometry x="20" y="662" width="129" height="102.2" as="geometry" />
        </mxCell>
        <mxCell id="rfesP-KTpIgR2fpJ6teb-74" style="line;strokeWidth=1;fillColor=none;align=left;verticalAlign=middle;spacingTop=-1;spacingLeft=3;spacingRight=3;rotatable=0;labelPosition=right;points=[];portConstraint=eastwest;strokeColor=inherit;" parent="rfesP-KTpIgR2fpJ6teb-73" vertex="1">
          <mxGeometry y="47.2" width="129" height="8" as="geometry" />
        </mxCell>
        <mxCell id="rfesP-KTpIgR2fpJ6teb-75" value="+schedule()" style="text;strokeColor=none;fillColor=none;align=left;verticalAlign=top;spacingLeft=4;spacingRight=4;overflow=hidden;rotatable=0;points=[[0,0.5],[1,0.5]];portConstraint=eastwest;" parent="rfesP-KTpIgR2fpJ6teb-73" vertex="1">
          <mxGeometry y="55.2" width="129" height="47" as="geometry" />
        </mxCell>
        <mxCell id="rfesP-KTpIgR2fpJ6teb-76" value="" style="curved=1;startArrow=none;endArrow=block;endSize=16;endFill=0;exitX=1;exitY=0.8;entryX=0.09;entryY=0;rounded=0;" parent="1" source="rfesP-KTpIgR2fpJ6teb-51" target="rfesP-KTpIgR2fpJ6teb-46" edge="1">
          <mxGeometry relative="1" as="geometry">
            <Array as="points">
              <mxPoint x="434" y="606" />
            </Array>
          </mxGeometry>
        </mxCell>
        <mxCell id="rfesP-KTpIgR2fpJ6teb-77" value="" style="curved=1;startArrow=none;endArrow=block;endSize=16;endFill=0;exitX=0.5;exitY=1;entryX=0.93;entryY=0;rounded=0;" parent="1" source="rfesP-KTpIgR2fpJ6teb-55" target="rfesP-KTpIgR2fpJ6teb-46" edge="1">
          <mxGeometry relative="1" as="geometry">
            <Array as="points">
              <mxPoint x="610" y="606" />
            </Array>
          </mxGeometry>
        </mxCell>
        <mxCell id="rfesP-KTpIgR2fpJ6teb-78" value="" style="curved=1;dashed=1;startArrow=none;endArrow=block;endSize=16;endFill=0;exitX=0.96;exitY=1;entryX=0.5;entryY=0;rounded=0;" parent="1" source="rfesP-KTpIgR2fpJ6teb-55" target="rfesP-KTpIgR2fpJ6teb-70" edge="1">
          <mxGeometry relative="1" as="geometry">
            <Array as="points">
              <mxPoint x="720" y="606" />
            </Array>
          </mxGeometry>
        </mxCell>
        <mxCell id="rfesP-KTpIgR2fpJ6teb-79" value="enrolls in" style="curved=1;startArrow=none;endArrow=open;endSize=12;exitX=0.5;exitY=1;entryX=0.29;entryY=0;rounded=0;" parent="1" source="rfesP-KTpIgR2fpJ6teb-51" target="rfesP-KTpIgR2fpJ6teb-59" edge="1">
          <mxGeometry relative="1" as="geometry">
            <Array as="points">
              <mxPoint x="229" y="606" />
            </Array>
          </mxGeometry>
        </mxCell>
        <mxCell id="rfesP-KTpIgR2fpJ6teb-80" value="teaches" style="curved=1;startArrow=none;endArrow=open;endSize=12;exitX=0;exitY=0.77;entryX=0.76;entryY=0;rounded=0;" parent="1" source="rfesP-KTpIgR2fpJ6teb-55" target="rfesP-KTpIgR2fpJ6teb-59" edge="1">
          <mxGeometry relative="1" as="geometry">
            <Array as="points">
              <mxPoint x="384" y="606" />
            </Array>
          </mxGeometry>
        </mxCell>
        <mxCell id="rfesP-KTpIgR2fpJ6teb-81" value="has" style="curved=1;startArrow=diamondThin;startSize=14;startFill=0;endArrow=none;exitX=0.5;exitY=1;entryX=0.5;entryY=0;rounded=0;" parent="1" source="rfesP-KTpIgR2fpJ6teb-63" target="rfesP-KTpIgR2fpJ6teb-55" edge="1">
          <mxGeometry relative="1" as="geometry">
            <Array as="points" />
          </mxGeometry>
        </mxCell>
        <mxCell id="rfesP-KTpIgR2fpJ6teb-82" value="composed of" style="curved=1;startArrow=diamondThin;startSize=14;startFill=1;endArrow=none;exitX=0.5;exitY=1;entryX=0.5;entryY=0;rounded=0;" parent="1" source="rfesP-KTpIgR2fpJ6teb-67" target="rfesP-KTpIgR2fpJ6teb-63" edge="1">
          <mxGeometry relative="1" as="geometry">
            <Array as="points" />
          </mxGeometry>
        </mxCell>
        <mxCell id="rfesP-KTpIgR2fpJ6teb-83" value="takes" style="curved=1;dashed=1;startArrow=none;endArrow=open;endSize=12;exitX=0;exitY=0.93;entryX=0.5;entryY=0;rounded=0;" parent="1" source="rfesP-KTpIgR2fpJ6teb-51" target="rfesP-KTpIgR2fpJ6teb-73" edge="1">
          <mxGeometry relative="1" as="geometry">
            <Array as="points">
              <mxPoint x="85" y="606" />
            </Array>
          </mxGeometry>
        </mxCell>
        <mxCell id="rfesP-KTpIgR2fpJ6teb-84" value="mermaid -&amp;gt;&amp;nbsp;&lt;div&gt;&lt;br&gt;&lt;/div&gt;" style="text;html=1;align=center;verticalAlign=middle;resizable=0;points=[];autosize=1;strokeColor=none;fillColor=none;" parent="1" vertex="1">
          <mxGeometry x="20" y="23" width="90" height="40" as="geometry" />
        </mxCell>
        <mxCell id="rfesP-KTpIgR2fpJ6teb-85" value="plantUML -&amp;gt;&lt;div&gt;&lt;br&gt;&lt;/div&gt;" style="text;html=1;align=center;verticalAlign=middle;resizable=0;points=[];autosize=1;strokeColor=none;fillColor=none;" parent="1" vertex="1">
          <mxGeometry x="5" y="973" width="90" height="40" as="geometry" />
        </mxCell>
        <UserObject label="" plantUmlData="{&#xa;  &quot;data&quot;: &quot;@startuml\n\n&#39; Classes and Interfaces\nclass Person {\n    +String name\n    +int age\n    +introduce()\n}\n\nclass Student {\n    +int studentId\n    +enroll(Course)\n}\n\nclass Teacher {\n    +String subject\n    +teach()\n}\n\nclass Course {\n    +String courseName\n    +start()\n}\n\nclass Department {\n    +String departmentName\n    +addTeacher(Teacher)\n}\n\nclass School {\n    +String schoolName\n}\n\ninterface IEmployee {\n    +getSalary()\n}\n\nclass Exam {\n    +schedule()\n}\n\n&#39; Inheritance\nStudent --|&gt; Person\nTeacher --|&gt; Person\n\n&#39; Realization (interface implementation)\nTeacher ..|&gt; IEmployee\n\n&#39; Association (basic usage link)\nStudent --&gt; Course : enrolls in\nTeacher --&gt; Course : teaches\n\n&#39; Aggregation (weak ownership)\nDepartment o-- Teacher : has\n\n&#39; Composition (strong ownership)\nSchool *-- Department : composed of\n\n&#39; Dependency (temporary use)\nStudent ..&gt; Exam : takes\n\n@enduml\n&quot;,&#xa;  &quot;format&quot;: &quot;svg&quot;&#xa;}" id="rfesP-KTpIgR2fpJ6teb-86">
          <mxCell style="shape=image;noLabel=1;verticalAlign=top;aspect=fixed;imageAspect=0;image=data:image/svg+xml,PHN2ZyB4bWxucz0iaHR0cDovL3d3dy53My5vcmcvMjAwMC9zdmciIHhtbG5zOnhsaW5rPSJodHRwOi8vd3d3LnczLm9yZy8xOTk5L3hsaW5rIiBjb250ZW50U3R5bGVUeXBlPSJ0ZXh0L2NzcyIgZGF0YS1kaWFncmFtLXR5cGU9IkNMQVNTIiBoZWlnaHQ9IjU1MHB4IiBwcmVzZXJ2ZUFzcGVjdFJhdGlvPSJub25lIiBzdHlsZT0id2lkdGg6NTY2cHg7aGVpZ2h0OjU1MHB4O2JhY2tncm91bmQ6I0ZGRkZGRjsiIHZlcnNpb249IjEuMSIgdmlld0JveD0iMCAwIDU2NiA1NTAiIHdpZHRoPSI1NjZweCIgem9vbUFuZFBhbj0ibWFnbmlmeSI+PGRlZnMvPjxnPjwhLS1jbGFzcyBQZXJzb24tLT48ZyBjbGFzcz0iZW50aXR5IiBkYXRhLWVudGl0eT0iUGVyc29uIiBkYXRhLXNvdXJjZS1saW5lPSIyIiBkYXRhLXVpZD0iZW50MDAwMiIgaWQ9ImVudGl0eV9QZXJzb24iPjxyZWN0IGZpbGw9IiNGMUYxRjEiIGhlaWdodD0iOTIuOTUzMSIgcng9IjIuNSIgcnk9IjIuNSIgc3R5bGU9InN0cm9rZTojMTgxODE4O3N0cm9rZS13aWR0aDowLjU7IiB3aWR0aD0iMTAzIiB4PSIxMzguNSIgeT0iNDUxIi8+PGVsbGlwc2UgY3g9IjE2Ni41NSIgY3k9IjQ2NyIgZmlsbD0iI0FERDFCMiIgcng9IjExIiByeT0iMTEiIHN0eWxlPSJzdHJva2U6IzE4MTgxODtzdHJva2Utd2lkdGg6MTsiLz48cGF0aCBkPSJNMTY0LjE3NSw0NzEuMjUgTDE2NC4xNzUsNDczIEwxNjkuMTEyNSw0NzMgTDE2OS4xMTI1LDQ3MS4yNSBMMTY0LjE3NSw0NzEuMjUgWiBNMTY0Ljg2MjUsNDcxLjkzNzUgUTE2NC44NjI1LDQ3MS45Mzc1IDE2NC44NjI1LDQ2Mi43NSBMMTYzLjExMjUsNDYyLjc1IFExNjMuMTEyNSw0NjIuNzUgMTYzLjExMjUsNDcxLjkzNzUgTDE2NC44NjI1LDQ3MS45Mzc1IFogTTE2OC40MjUsNDcxLjkzNzUgTDE3MC4xNzUsNDcxLjkzNzUgUTE3MC4xNzUsNDcxLjkzNzUgMTcwLjE3NSw0NjkuMTI1IEwxNjguNDI1LDQ2OS4xMjUgUTE2OC40MjUsNDY5LjEyNSAxNjguNDI1LDQ3MS45Mzc1IFogTTE2OC40MjUsNDYyLjc1IFExNjguNDI1LDQ2Mi43NSAxNjguNDI1LDQ2NS41NjI1IEwxNzAuMTc1LDQ2NS41NjI1IFExNzAuMTc1LDQ2NS41NjI1IDE3MC4xNzUsNDYyLjc1IEwxNjguNDI1LDQ2Mi43NSBaIE0xNjQuMTc1LDQ2My40Mzc1IEwxNjkuMTEyNSw0NjMuNDM3NSBMMTY5LjExMjUsNDYxLjY4NzUgTDE2NC4xNzUsNDYxLjY4NzUgTDE2NC4xNzUsNDYzLjQzNzUgWiAiIGZpbGw9IiMwMDAwMDAiLz48dGV4dCBmaWxsPSIjMDAwMDAwIiBmb250LWZhbWlseT0ic2Fucy1zZXJpZiIgZm9udC1zaXplPSIxNCIgbGVuZ3RoQWRqdXN0PSJzcGFjaW5nIiB0ZXh0TGVuZ3RoPSI0MiIgeD0iMTgzLjQ1IiB5PSI0NzIuNzQyMiI+UGVyc29uPC90ZXh0PjxsaW5lIHN0eWxlPSJzdHJva2U6IzE4MTgxODtzdHJva2Utd2lkdGg6MC41OyIgeDE9IjEzOS41IiB4Mj0iMjQwLjUiIHkxPSI0ODMiIHkyPSI0ODMiLz48ZWxsaXBzZSBjeD0iMTQ5LjUiIGN5PSI0OTUuOTkyMiIgZmlsbD0ibm9uZSIgcng9IjMiIHJ5PSIzIiBzdHlsZT0ic3Ryb2tlOiMwMzgwNDg7c3Ryb2tlLXdpZHRoOjE7Ii8+PHRleHQgZmlsbD0iIzAwMDAwMCIgZm9udC1mYW1pbHk9InNhbnMtc2VyaWYiIGZvbnQtc2l6ZT0iMTQiIGxlbmd0aEFkanVzdD0ic3BhY2luZyIgdGV4dExlbmd0aD0iNzciIHg9IjE1OC41IiB5PSI1MDAuMjM0NCI+U3RyaW5nIG5hbWU8L3RleHQ+PGVsbGlwc2UgY3g9IjE0OS41IiBjeT0iNTEwLjk3NjYiIGZpbGw9Im5vbmUiIHJ4PSIzIiByeT0iMyIgc3R5bGU9InN0cm9rZTojMDM4MDQ4O3N0cm9rZS13aWR0aDoxOyIvPjx0ZXh0IGZpbGw9IiMwMDAwMDAiIGZvbnQtZmFtaWx5PSJzYW5zLXNlcmlmIiBmb250LXNpemU9IjE0IiBsZW5ndGhBZGp1c3Q9InNwYWNpbmciIHRleHRMZW5ndGg9IjQ5IiB4PSIxNTguNSIgeT0iNTE1LjIxODgiPmludCBhZ2U8L3RleHQ+PGxpbmUgc3R5bGU9InN0cm9rZTojMTgxODE4O3N0cm9rZS13aWR0aDowLjU7IiB4MT0iMTM5LjUiIHgyPSIyNDAuNSIgeTE9IjUyMC45Njg4IiB5Mj0iNTIwLjk2ODgiLz48ZWxsaXBzZSBjeD0iMTQ5LjUiIGN5PSI1MzMuOTYwOSIgZmlsbD0iIzg0QkU4NCIgcng9IjMiIHJ5PSIzIiBzdHlsZT0ic3Ryb2tlOiMwMzgwNDg7c3Ryb2tlLXdpZHRoOjE7Ii8+PHRleHQgZmlsbD0iIzAwMDAwMCIgZm9udC1mYW1pbHk9InNhbnMtc2VyaWYiIGZvbnQtc2l6ZT0iMTQiIGxlbmd0aEFkanVzdD0ic3BhY2luZyIgdGV4dExlbmd0aD0iNzciIHg9IjE1OC41IiB5PSI1MzguMjAzMSI+aW50cm9kdWNlKCk8L3RleHQ+PC9nPjwhLS1jbGFzcyBTdHVkZW50LS0+PGcgY2xhc3M9ImVudGl0eSIgZGF0YS1lbnRpdHk9IlN0dWRlbnQiIGRhdGEtc291cmNlLWxpbmU9IjgiIGRhdGEtdWlkPSJlbnQwMDAzIiBpZD0iZW50aXR5X1N0dWRlbnQiPjxyZWN0IGZpbGw9IiNGMUYxRjEiIGhlaWdodD0iNzcuOTY4OCIgcng9IjIuNSIgcnk9IjIuNSIgc3R5bGU9InN0cm9rZTojMTgxODE4O3N0cm9rZS13aWR0aDowLjU7IiB3aWR0aD0iMTI0IiB4PSIxMDQiIHk9IjI5OCIvPjxlbGxpcHNlIGN4PSIxMzguMzUiIGN5PSIzMTQiIGZpbGw9IiNBREQxQjIiIHJ4PSIxMSIgcnk9IjExIiBzdHlsZT0ic3Ryb2tlOiMxODE4MTg7c3Ryb2tlLXdpZHRoOjE7Ii8+PHBhdGggZD0iTTEzNS45NzUsMzE4LjI1IEwxMzUuOTc1LDMyMCBMMTQwLjkxMjUsMzIwIEwxNDAuOTEyNSwzMTguMjUgTDEzNS45NzUsMzE4LjI1IFogTTEzNi42NjI1LDMxOC45Mzc1IFExMzYuNjYyNSwzMTguOTM3NSAxMzYuNjYyNSwzMDkuNzUgTDEzNC45MTI1LDMwOS43NSBRMTM0LjkxMjUsMzA5Ljc1IDEzNC45MTI1LDMxOC45Mzc1IEwxMzYuNjYyNSwzMTguOTM3NSBaIE0xNDAuMjI1LDMxOC45Mzc1IEwxNDEuOTc1LDMxOC45Mzc1IFExNDEuOTc1LDMxOC45Mzc1IDE0MS45NzUsMzE2LjEyNSBMMTQwLjIyNSwzMTYuMTI1IFExNDAuMjI1LDMxNi4xMjUgMTQwLjIyNSwzMTguOTM3NSBaIE0xNDAuMjI1LDMwOS43NSBRMTQwLjIyNSwzMDkuNzUgMTQwLjIyNSwzMTIuNTYyNSBMMTQxLjk3NSwzMTIuNTYyNSBRMTQxLjk3NSwzMTIuNTYyNSAxNDEuOTc1LDMwOS43NSBMMTQwLjIyNSwzMDkuNzUgWiBNMTM1Ljk3NSwzMTAuNDM3NSBMMTQwLjkxMjUsMzEwLjQzNzUgTDE0MC45MTI1LDMwOC42ODc1IEwxMzUuOTc1LDMwOC42ODc1IEwxMzUuOTc1LDMxMC40Mzc1IFogIiBmaWxsPSIjMDAwMDAwIi8+PHRleHQgZmlsbD0iIzAwMDAwMCIgZm9udC1mYW1pbHk9InNhbnMtc2VyaWYiIGZvbnQtc2l6ZT0iMTQiIGxlbmd0aEFkanVzdD0ic3BhY2luZyIgdGV4dExlbmd0aD0iNDkiIHg9IjE1Ni42NSIgeT0iMzE5Ljc0MjIiPlN0dWRlbnQ8L3RleHQ+PGxpbmUgc3R5bGU9InN0cm9rZTojMTgxODE4O3N0cm9rZS13aWR0aDowLjU7IiB4MT0iMTA1IiB4Mj0iMjI3IiB5MT0iMzMwIiB5Mj0iMzMwIi8+PGVsbGlwc2UgY3g9IjExNSIgY3k9IjM0Mi45OTIyIiBmaWxsPSJub25lIiByeD0iMyIgcnk9IjMiIHN0eWxlPSJzdHJva2U6IzAzODA0ODtzdHJva2Utd2lkdGg6MTsiLz48dGV4dCBmaWxsPSIjMDAwMDAwIiBmb250LWZhbWlseT0ic2Fucy1zZXJpZiIgZm9udC1zaXplPSIxNCIgbGVuZ3RoQWRqdXN0PSJzcGFjaW5nIiB0ZXh0TGVuZ3RoPSI5MSIgeD0iMTI0IiB5PSIzNDcuMjM0NCI+aW50IHN0dWRlbnRJZDwvdGV4dD48bGluZSBzdHlsZT0ic3Ryb2tlOiMxODE4MTg7c3Ryb2tlLXdpZHRoOjAuNTsiIHgxPSIxMDUiIHgyPSIyMjciIHkxPSIzNTIuOTg0NCIgeTI9IjM1Mi45ODQ0Ii8+PGVsbGlwc2UgY3g9IjExNSIgY3k9IjM2NS45NzY2IiBmaWxsPSIjODRCRTg0IiByeD0iMyIgcnk9IjMiIHN0eWxlPSJzdHJva2U6IzAzODA0ODtzdHJva2Utd2lkdGg6MTsiLz48dGV4dCBmaWxsPSIjMDAwMDAwIiBmb250LWZhbWlseT0ic2Fucy1zZXJpZiIgZm9udC1zaXplPSIxNCIgbGVuZ3RoQWRqdXN0PSJzcGFjaW5nIiB0ZXh0TGVuZ3RoPSI5OCIgeD0iMTI0IiB5PSIzNzAuMjE4OCI+ZW5yb2xsKENvdXJzZSk8L3RleHQ+PC9nPjwhLS1jbGFzcyBUZWFjaGVyLS0+PGcgY2xhc3M9ImVudGl0eSIgZGF0YS1lbnRpdHk9IlRlYWNoZXIiIGRhdGEtc291cmNlLWxpbmU9IjEzIiBkYXRhLXVpZD0iZW50MDAwNCIgaWQ9ImVudGl0eV9UZWFjaGVyIj48cmVjdCBmaWxsPSIjRjFGMUYxIiBoZWlnaHQ9Ijc3Ljk2ODgiIHJ4PSIyLjUiIHJ5PSIyLjUiIHN0eWxlPSJzdHJva2U6IzE4MTgxODtzdHJva2Utd2lkdGg6MC41OyIgd2lkdGg9IjEyNCIgeD0iMzEwIiB5PSIyOTgiLz48ZWxsaXBzZSBjeD0iMzQ0LjM1IiBjeT0iMzE0IiBmaWxsPSIjQUREMUIyIiByeD0iMTEiIHJ5PSIxMSIgc3R5bGU9InN0cm9rZTojMTgxODE4O3N0cm9rZS13aWR0aDoxOyIvPjxwYXRoIGQ9Ik0zNDEuOTc1LDMxOC4yNSBMMzQxLjk3NSwzMjAgTDM0Ni45MTI1LDMyMCBMMzQ2LjkxMjUsMzE4LjI1IEwzNDEuOTc1LDMxOC4yNSBaIE0zNDIuNjYyNSwzMTguOTM3NSBRMzQyLjY2MjUsMzE4LjkzNzUgMzQyLjY2MjUsMzA5Ljc1IEwzNDAuOTEyNSwzMDkuNzUgUTM0MC45MTI1LDMwOS43NSAzNDAuOTEyNSwzMTguOTM3NSBMMzQyLjY2MjUsMzE4LjkzNzUgWiBNMzQ2LjIyNSwzMTguOTM3NSBMMzQ3Ljk3NSwzMTguOTM3NSBRMzQ3Ljk3NSwzMTguOTM3NSAzNDcuOTc1LDMxNi4xMjUgTDM0Ni4yMjUsMzE2LjEyNSBRMzQ2LjIyNSwzMTYuMTI1IDM0Ni4yMjUsMzE4LjkzNzUgWiBNMzQ2LjIyNSwzMDkuNzUgUTM0Ni4yMjUsMzA5Ljc1IDM0Ni4yMjUsMzEyLjU2MjUgTDM0Ny45NzUsMzEyLjU2MjUgUTM0Ny45NzUsMzEyLjU2MjUgMzQ3Ljk3NSwzMDkuNzUgTDM0Ni4yMjUsMzA5Ljc1IFogTTM0MS45NzUsMzEwLjQzNzUgTDM0Ni45MTI1LDMxMC40Mzc1IEwzNDYuOTEyNSwzMDguNjg3NSBMMzQxLjk3NSwzMDguNjg3NSBMMzQxLjk3NSwzMTAuNDM3NSBaICIgZmlsbD0iIzAwMDAwMCIvPjx0ZXh0IGZpbGw9IiMwMDAwMDAiIGZvbnQtZmFtaWx5PSJzYW5zLXNlcmlmIiBmb250LXNpemU9IjE0IiBsZW5ndGhBZGp1c3Q9InNwYWNpbmciIHRleHRMZW5ndGg9IjQ5IiB4PSIzNjIuNjUiIHk9IjMxOS43NDIyIj5UZWFjaGVyPC90ZXh0PjxsaW5lIHN0eWxlPSJzdHJva2U6IzE4MTgxODtzdHJva2Utd2lkdGg6MC41OyIgeDE9IjMxMSIgeDI9IjQzMyIgeTE9IjMzMCIgeTI9IjMzMCIvPjxlbGxpcHNlIGN4PSIzMjEiIGN5PSIzNDIuOTkyMiIgZmlsbD0ibm9uZSIgcng9IjMiIHJ5PSIzIiBzdHlsZT0ic3Ryb2tlOiMwMzgwNDg7c3Ryb2tlLXdpZHRoOjE7Ii8+PHRleHQgZmlsbD0iIzAwMDAwMCIgZm9udC1mYW1pbHk9InNhbnMtc2VyaWYiIGZvbnQtc2l6ZT0iMTQiIGxlbmd0aEFkanVzdD0ic3BhY2luZyIgdGV4dExlbmd0aD0iOTgiIHg9IjMzMCIgeT0iMzQ3LjIzNDQiPlN0cmluZyBzdWJqZWN0PC90ZXh0PjxsaW5lIHN0eWxlPSJzdHJva2U6IzE4MTgxODtzdHJva2Utd2lkdGg6MC41OyIgeDE9IjMxMSIgeDI9IjQzMyIgeTE9IjM1Mi45ODQ0IiB5Mj0iMzUyLjk4NDQiLz48ZWxsaXBzZSBjeD0iMzIxIiBjeT0iMzY1Ljk3NjYiIGZpbGw9IiM4NEJFODQiIHJ4PSIzIiByeT0iMyIgc3R5bGU9InN0cm9rZTojMDM4MDQ4O3N0cm9rZS13aWR0aDoxOyIvPjx0ZXh0IGZpbGw9IiMwMDAwMDAiIGZvbnQtZmFtaWx5PSJzYW5zLXNlcmlmIiBmb250LXNpemU9IjE0IiBsZW5ndGhBZGp1c3Q9InNwYWNpbmciIHRleHRMZW5ndGg9IjQ5IiB4PSIzMzAiIHk9IjM3MC4yMTg4Ij50ZWFjaCgpPC90ZXh0PjwvZz48IS0tY2xhc3MgQ291cnNlLS0+PGcgY2xhc3M9ImVudGl0eSIgZGF0YS1lbnRpdHk9IkNvdXJzZSIgZGF0YS1zb3VyY2UtbGluZT0iMTgiIGRhdGEtdWlkPSJlbnQwMDA1IiBpZD0iZW50aXR5X0NvdXJzZSI+PHJlY3QgZmlsbD0iI0YxRjFGMSIgaGVpZ2h0PSI3Ny45Njg4IiByeD0iMi41IiByeT0iMi41IiBzdHlsZT0ic3Ryb2tlOiMxODE4MTg7c3Ryb2tlLXdpZHRoOjAuNTsiIHdpZHRoPSIxNDUiIHg9IjI3Ni41IiB5PSI0NTguNSIvPjxlbGxpcHNlIGN4PSIzMjMuNzUiIGN5PSI0NzQuNSIgZmlsbD0iI0FERDFCMiIgcng9IjExIiByeT0iMTEiIHN0eWxlPSJzdHJva2U6IzE4MTgxODtzdHJva2Utd2lkdGg6MTsiLz48cGF0aCBkPSJNMzIxLjM3NSw0NzguNzUgTDMyMS4zNzUsNDgwLjUgTDMyNi4zMTI1LDQ4MC41IEwzMjYuMzEyNSw0NzguNzUgTDMyMS4zNzUsNDc4Ljc1IFogTTMyMi4wNjI1LDQ3OS40Mzc1IFEzMjIuMDYyNSw0NzkuNDM3NSAzMjIuMDYyNSw0NzAuMjUgTDMyMC4zMTI1LDQ3MC4yNSBRMzIwLjMxMjUsNDcwLjI1IDMyMC4zMTI1LDQ3OS40Mzc1IEwzMjIuMDYyNSw0NzkuNDM3NSBaIE0zMjUuNjI1LDQ3OS40Mzc1IEwzMjcuMzc1LDQ3OS40Mzc1IFEzMjcuMzc1LDQ3OS40Mzc1IDMyNy4zNzUsNDc2LjYyNSBMMzI1LjYyNSw0NzYuNjI1IFEzMjUuNjI1LDQ3Ni42MjUgMzI1LjYyNSw0NzkuNDM3NSBaIE0zMjUuNjI1LDQ3MC4yNSBRMzI1LjYyNSw0NzAuMjUgMzI1LjYyNSw0NzMuMDYyNSBMMzI3LjM3NSw0NzMuMDYyNSBRMzI3LjM3NSw0NzMuMDYyNSAzMjcuMzc1LDQ3MC4yNSBMMzI1LjYyNSw0NzAuMjUgWiBNMzIxLjM3NSw0NzAuOTM3NSBMMzI2LjMxMjUsNDcwLjkzNzUgTDMyNi4zMTI1LDQ2OS4xODc1IEwzMjEuMzc1LDQ2OS4xODc1IEwzMjEuMzc1LDQ3MC45Mzc1IFogIiBmaWxsPSIjMDAwMDAwIi8+PHRleHQgZmlsbD0iIzAwMDAwMCIgZm9udC1mYW1pbHk9InNhbnMtc2VyaWYiIGZvbnQtc2l6ZT0iMTQiIGxlbmd0aEFkanVzdD0ic3BhY2luZyIgdGV4dExlbmd0aD0iNDIiIHg9IjM0NC4yNSIgeT0iNDgwLjI0MjIiPkNvdXJzZTwvdGV4dD48bGluZSBzdHlsZT0ic3Ryb2tlOiMxODE4MTg7c3Ryb2tlLXdpZHRoOjAuNTsiIHgxPSIyNzcuNSIgeDI9IjQyMC41IiB5MT0iNDkwLjUiIHkyPSI0OTAuNSIvPjxlbGxpcHNlIGN4PSIyODcuNSIgY3k9IjUwMy40OTIyIiBmaWxsPSJub25lIiByeD0iMyIgcnk9IjMiIHN0eWxlPSJzdHJva2U6IzAzODA0ODtzdHJva2Utd2lkdGg6MTsiLz48dGV4dCBmaWxsPSIjMDAwMDAwIiBmb250LWZhbWlseT0ic2Fucy1zZXJpZiIgZm9udC1zaXplPSIxNCIgbGVuZ3RoQWRqdXN0PSJzcGFjaW5nIiB0ZXh0TGVuZ3RoPSIxMTkiIHg9IjI5Ni41IiB5PSI1MDcuNzM0NCI+U3RyaW5nIGNvdXJzZU5hbWU8L3RleHQ+PGxpbmUgc3R5bGU9InN0cm9rZTojMTgxODE4O3N0cm9rZS13aWR0aDowLjU7IiB4MT0iMjc3LjUiIHgyPSI0MjAuNSIgeTE9IjUxMy40ODQ0IiB5Mj0iNTEzLjQ4NDQiLz48ZWxsaXBzZSBjeD0iMjg3LjUiIGN5PSI1MjYuNDc2NiIgZmlsbD0iIzg0QkU4NCIgcng9IjMiIHJ5PSIzIiBzdHlsZT0ic3Ryb2tlOiMwMzgwNDg7c3Ryb2tlLXdpZHRoOjE7Ii8+PHRleHQgZmlsbD0iIzAwMDAwMCIgZm9udC1mYW1pbHk9InNhbnMtc2VyaWYiIGZvbnQtc2l6ZT0iMTQiIGxlbmd0aEFkanVzdD0ic3BhY2luZyIgdGV4dExlbmd0aD0iNDkiIHg9IjI5Ni41IiB5PSI1MzAuNzE4OCI+c3RhcnQoKTwvdGV4dD48L2c+PCEtLWNsYXNzIERlcGFydG1lbnQtLT48ZyBjbGFzcz0iZW50aXR5IiBkYXRhLWVudGl0eT0iRGVwYXJ0bWVudCIgZGF0YS1zb3VyY2UtbGluZT0iMjMiIGRhdGEtdWlkPSJlbnQwMDA2IiBpZD0iZW50aXR5X0RlcGFydG1lbnQiPjxyZWN0IGZpbGw9IiNGMUYxRjEiIGhlaWdodD0iNzcuOTY4OCIgcng9IjIuNSIgcnk9IjIuNSIgc3R5bGU9InN0cm9rZTojMTgxODE4O3N0cm9rZS13aWR0aDowLjU7IiB3aWR0aD0iMTczIiB4PSIyODUuNSIgeT0iMTQ1Ii8+PGVsbGlwc2UgY3g9IjMzMi43NSIgY3k9IjE2MSIgZmlsbD0iI0FERDFCMiIgcng9IjExIiByeT0iMTEiIHN0eWxlPSJzdHJva2U6IzE4MTgxODtzdHJva2Utd2lkdGg6MTsiLz48cGF0aCBkPSJNMzMwLjM3NSwxNjUuMjUgTDMzMC4zNzUsMTY3IEwzMzUuMzEyNSwxNjcgTDMzNS4zMTI1LDE2NS4yNSBMMzMwLjM3NSwxNjUuMjUgWiBNMzMxLjA2MjUsMTY1LjkzNzUgUTMzMS4wNjI1LDE2NS45Mzc1IDMzMS4wNjI1LDE1Ni43NSBMMzI5LjMxMjUsMTU2Ljc1IFEzMjkuMzEyNSwxNTYuNzUgMzI5LjMxMjUsMTY1LjkzNzUgTDMzMS4wNjI1LDE2NS45Mzc1IFogTTMzNC42MjUsMTY1LjkzNzUgTDMzNi4zNzUsMTY1LjkzNzUgUTMzNi4zNzUsMTY1LjkzNzUgMzM2LjM3NSwxNjMuMTI1IEwzMzQuNjI1LDE2My4xMjUgUTMzNC42MjUsMTYzLjEyNSAzMzQuNjI1LDE2NS45Mzc1IFogTTMzNC42MjUsMTU2Ljc1IFEzMzQuNjI1LDE1Ni43NSAzMzQuNjI1LDE1OS41NjI1IEwzMzYuMzc1LDE1OS41NjI1IFEzMzYuMzc1LDE1OS41NjI1IDMzNi4zNzUsMTU2Ljc1IEwzMzQuNjI1LDE1Ni43NSBaIE0zMzAuMzc1LDE1Ny40Mzc1IEwzMzUuMzEyNSwxNTcuNDM3NSBMMzM1LjMxMjUsMTU1LjY4NzUgTDMzMC4zNzUsMTU1LjY4NzUgTDMzMC4zNzUsMTU3LjQzNzUgWiAiIGZpbGw9IiMwMDAwMDAiLz48dGV4dCBmaWxsPSIjMDAwMDAwIiBmb250LWZhbWlseT0ic2Fucy1zZXJpZiIgZm9udC1zaXplPSIxNCIgbGVuZ3RoQWRqdXN0PSJzcGFjaW5nIiB0ZXh0TGVuZ3RoPSI3MCIgeD0iMzUzLjI1IiB5PSIxNjYuNzQyMiI+RGVwYXJ0bWVudDwvdGV4dD48bGluZSBzdHlsZT0ic3Ryb2tlOiMxODE4MTg7c3Ryb2tlLXdpZHRoOjAuNTsiIHgxPSIyODYuNSIgeDI9IjQ1Ny41IiB5MT0iMTc3IiB5Mj0iMTc3Ii8+PGVsbGlwc2UgY3g9IjI5Ni41IiBjeT0iMTg5Ljk5MjIiIGZpbGw9Im5vbmUiIHJ4PSIzIiByeT0iMyIgc3R5bGU9InN0cm9rZTojMDM4MDQ4O3N0cm9rZS13aWR0aDoxOyIvPjx0ZXh0IGZpbGw9IiMwMDAwMDAiIGZvbnQtZmFtaWx5PSJzYW5zLXNlcmlmIiBmb250LXNpemU9IjE0IiBsZW5ndGhBZGp1c3Q9InNwYWNpbmciIHRleHRMZW5ndGg9IjE0NyIgeD0iMzA1LjUiIHk9IjE5NC4yMzQ0Ij5TdHJpbmcgZGVwYXJ0bWVudE5hbWU8L3RleHQ+PGxpbmUgc3R5bGU9InN0cm9rZTojMTgxODE4O3N0cm9rZS13aWR0aDowLjU7IiB4MT0iMjg2LjUiIHgyPSI0NTcuNSIgeTE9IjE5OS45ODQ0IiB5Mj0iMTk5Ljk4NDQiLz48ZWxsaXBzZSBjeD0iMjk2LjUiIGN5PSIyMTIuOTc2NiIgZmlsbD0iIzg0QkU4NCIgcng9IjMiIHJ5PSIzIiBzdHlsZT0ic3Ryb2tlOiMwMzgwNDg7c3Ryb2tlLXdpZHRoOjE7Ii8+PHRleHQgZmlsbD0iIzAwMDAwMCIgZm9udC1mYW1pbHk9InNhbnMtc2VyaWYiIGZvbnQtc2l6ZT0iMTQiIGxlbmd0aEFkanVzdD0ic3BhY2luZyIgdGV4dExlbmd0aD0iMTMzIiB4PSIzMDUuNSIgeT0iMjE3LjIxODgiPmFkZFRlYWNoZXIoVGVhY2hlcik8L3RleHQ+PC9nPjwhLS1jbGFzcyBTY2hvb2wtLT48ZyBjbGFzcz0iZW50aXR5IiBkYXRhLWVudGl0eT0iU2Nob29sIiBkYXRhLXNvdXJjZS1saW5lPSIyOCIgZGF0YS11aWQ9ImVudDAwMDciIGlkPSJlbnRpdHlfU2Nob29sIj48cmVjdCBmaWxsPSIjRjFGMUYxIiBoZWlnaHQ9IjYyLjk4NDQiIHJ4PSIyLjUiIHJ5PSIyLjUiIHN0eWxlPSJzdHJva2U6IzE4MTgxODtzdHJva2Utd2lkdGg6MC41OyIgd2lkdGg9IjE0NSIgeD0iMjk5LjUiIHk9IjciLz48ZWxsaXBzZSBjeD0iMzQ2Ljc1IiBjeT0iMjMiIGZpbGw9IiNBREQxQjIiIHJ4PSIxMSIgcnk9IjExIiBzdHlsZT0ic3Ryb2tlOiMxODE4MTg7c3Ryb2tlLXdpZHRoOjE7Ii8+PHBhdGggZD0iTTM0NC4zNzUsMjcuMjUgTDM0NC4zNzUsMjkgTDM0OS4zMTI1LDI5IEwzNDkuMzEyNSwyNy4yNSBMMzQ0LjM3NSwyNy4yNSBaIE0zNDUuMDYyNSwyNy45Mzc1IFEzNDUuMDYyNSwyNy45Mzc1IDM0NS4wNjI1LDE4Ljc1IEwzNDMuMzEyNSwxOC43NSBRMzQzLjMxMjUsMTguNzUgMzQzLjMxMjUsMjcuOTM3NSBMMzQ1LjA2MjUsMjcuOTM3NSBaIE0zNDguNjI1LDI3LjkzNzUgTDM1MC4zNzUsMjcuOTM3NSBRMzUwLjM3NSwyNy45Mzc1IDM1MC4zNzUsMjUuMTI1IEwzNDguNjI1LDI1LjEyNSBRMzQ4LjYyNSwyNS4xMjUgMzQ4LjYyNSwyNy45Mzc1IFogTTM0OC42MjUsMTguNzUgUTM0OC42MjUsMTguNzUgMzQ4LjYyNSwyMS41NjI1IEwzNTAuMzc1LDIxLjU2MjUgUTM1MC4zNzUsMjEuNTYyNSAzNTAuMzc1LDE4Ljc1IEwzNDguNjI1LDE4Ljc1IFogTTM0NC4zNzUsMTkuNDM3NSBMMzQ5LjMxMjUsMTkuNDM3NSBMMzQ5LjMxMjUsMTcuNjg3NSBMMzQ0LjM3NSwxNy42ODc1IEwzNDQuMzc1LDE5LjQzNzUgWiAiIGZpbGw9IiMwMDAwMDAiLz48dGV4dCBmaWxsPSIjMDAwMDAwIiBmb250LWZhbWlseT0ic2Fucy1zZXJpZiIgZm9udC1zaXplPSIxNCIgbGVuZ3RoQWRqdXN0PSJzcGFjaW5nIiB0ZXh0TGVuZ3RoPSI0MiIgeD0iMzY3LjI1IiB5PSIyOC43NDIyIj5TY2hvb2w8L3RleHQ+PGxpbmUgc3R5bGU9InN0cm9rZTojMTgxODE4O3N0cm9rZS13aWR0aDowLjU7IiB4MT0iMzAwLjUiIHgyPSI0NDMuNSIgeTE9IjM5IiB5Mj0iMzkiLz48ZWxsaXBzZSBjeD0iMzEwLjUiIGN5PSI1MS45OTIyIiBmaWxsPSJub25lIiByeD0iMyIgcnk9IjMiIHN0eWxlPSJzdHJva2U6IzAzODA0ODtzdHJva2Utd2lkdGg6MTsiLz48dGV4dCBmaWxsPSIjMDAwMDAwIiBmb250LWZhbWlseT0ic2Fucy1zZXJpZiIgZm9udC1zaXplPSIxNCIgbGVuZ3RoQWRqdXN0PSJzcGFjaW5nIiB0ZXh0TGVuZ3RoPSIxMTkiIHg9IjMxOS41IiB5PSI1Ni4yMzQ0Ij5TdHJpbmcgc2Nob29sTmFtZTwvdGV4dD48bGluZSBzdHlsZT0ic3Ryb2tlOiMxODE4MTg7c3Ryb2tlLXdpZHRoOjAuNTsiIHgxPSIzMDAuNSIgeDI9IjQ0My41IiB5MT0iNjEuOTg0NCIgeTI9IjYxLjk4NDQiLz48L2c+PCEtLWNsYXNzIElFbXBsb3llZS0tPjxnIGNsYXNzPSJlbnRpdHkiIGRhdGEtZW50aXR5PSJJRW1wbG95ZWUiIGRhdGEtc291cmNlLWxpbmU9IjMyIiBkYXRhLXVpZD0iZW50MDAwOCIgaWQ9ImVudGl0eV9JRW1wbG95ZWUiPjxyZWN0IGZpbGw9IiNGMUYxRjEiIGhlaWdodD0iNjIuOTg0NCIgcng9IjIuNSIgcnk9IjIuNSIgc3R5bGU9InN0cm9rZTojMTgxODE4O3N0cm9rZS13aWR0aDowLjU7IiB3aWR0aD0iMTAzIiB4PSI0NTYuNSIgeT0iNDY2Ii8+PGVsbGlwc2UgY3g9IjQ3NS4xIiBjeT0iNDgyIiBmaWxsPSIjQjRBN0U1IiByeD0iMTEiIHJ5PSIxMSIgc3R5bGU9InN0cm9rZTojMTgxODE4O3N0cm9rZS13aWR0aDoxOyIvPjxwYXRoIGQ9Ik00NzguMjI1LDQ4OCBMNDc4LjIyNSw0ODYuMjUgTDQ3Ni4xLDQ4Ni4yNSBRNDc2LjEsNDg2LjI1IDQ3Ni4xLDQ3OC40Mzc1IEw0NzguMjI1LDQ3OC40Mzc1IEw0NzguMjI1LDQ3Ni42ODc1IEw0NzIuMjI1LDQ3Ni42ODc1IEw0NzIuMjI1LDQ3OC40Mzc1IEw0NzQuMzUsNDc4LjQzNzUgUTQ3NC4zNSw0NzguNDM3NSA0NzQuMzUsNDg2LjI1IEw0NzIuMjI1LDQ4Ni4yNSBMNDcyLjIyNSw0ODggTDQ3OC4yMjUsNDg4IFogIiBmaWxsPSIjMDAwMDAwIi8+PHRleHQgZmlsbD0iIzAwMDAwMCIgZm9udC1mYW1pbHk9InNhbnMtc2VyaWYiIGZvbnQtc2l6ZT0iMTQiIGZvbnQtc3R5bGU9Iml0YWxpYyIgbGVuZ3RoQWRqdXN0PSJzcGFjaW5nIiB0ZXh0TGVuZ3RoPSI2MyIgeD0iNDg5LjkiIHk9IjQ4Ny43NDIyIj5JRW1wbG95ZWU8L3RleHQ+PGxpbmUgc3R5bGU9InN0cm9rZTojMTgxODE4O3N0cm9rZS13aWR0aDowLjU7IiB4MT0iNDU3LjUiIHgyPSI1NTguNSIgeTE9IjQ5OCIgeTI9IjQ5OCIvPjxsaW5lIHN0eWxlPSJzdHJva2U6IzE4MTgxODtzdHJva2Utd2lkdGg6MC41OyIgeDE9IjQ1Ny41IiB4Mj0iNTU4LjUiIHkxPSI1MDYiIHkyPSI1MDYiLz48ZWxsaXBzZSBjeD0iNDY3LjUiIGN5PSI1MTguOTkyMiIgZmlsbD0iIzg0QkU4NCIgcng9IjMiIHJ5PSIzIiBzdHlsZT0ic3Ryb2tlOiMwMzgwNDg7c3Ryb2tlLXdpZHRoOjE7Ii8+PHRleHQgZmlsbD0iIzAwMDAwMCIgZm9udC1mYW1pbHk9InNhbnMtc2VyaWYiIGZvbnQtc2l6ZT0iMTQiIGxlbmd0aEFkanVzdD0ic3BhY2luZyIgdGV4dExlbmd0aD0iNzciIHg9IjQ3Ni41IiB5PSI1MjMuMjM0NCI+Z2V0U2FsYXJ5KCk8L3RleHQ+PC9nPjwhLS1jbGFzcyBFeGFtLS0+PGcgY2xhc3M9ImVudGl0eSIgZGF0YS1lbnRpdHk9IkV4YW0iIGRhdGEtc291cmNlLWxpbmU9IjM2IiBkYXRhLXVpZD0iZW50MDAwOSIgaWQ9ImVudGl0eV9FeGFtIj48cmVjdCBmaWxsPSIjRjFGMUYxIiBoZWlnaHQ9IjYyLjk4NDQiIHJ4PSIyLjUiIHJ5PSIyLjUiIHN0eWxlPSJzdHJva2U6IzE4MTgxODtzdHJva2Utd2lkdGg6MC41OyIgd2lkdGg9Ijk2IiB4PSI3IiB5PSI0NjYiLz48ZWxsaXBzZSBjeD0iMzguMiIgY3k9IjQ4MiIgZmlsbD0iI0FERDFCMiIgcng9IjExIiByeT0iMTEiIHN0eWxlPSJzdHJva2U6IzE4MTgxODtzdHJva2Utd2lkdGg6MTsiLz48cGF0aCBkPSJNMzUuODI1LDQ4Ni4yNSBMMzUuODI1LDQ4OCBMNDAuNzYyNSw0ODggTDQwLjc2MjUsNDg2LjI1IEwzNS44MjUsNDg2LjI1IFogTTM2LjUxMjUsNDg2LjkzNzUgUTM2LjUxMjUsNDg2LjkzNzUgMzYuNTEyNSw0NzcuNzUgTDM0Ljc2MjUsNDc3Ljc1IFEzNC43NjI1LDQ3Ny43NSAzNC43NjI1LDQ4Ni45Mzc1IEwzNi41MTI1LDQ4Ni45Mzc1IFogTTQwLjA3NSw0ODYuOTM3NSBMNDEuODI1LDQ4Ni45Mzc1IFE0MS44MjUsNDg2LjkzNzUgNDEuODI1LDQ4NC4xMjUgTDQwLjA3NSw0ODQuMTI1IFE0MC4wNzUsNDg0LjEyNSA0MC4wNzUsNDg2LjkzNzUgWiBNNDAuMDc1LDQ3Ny43NSBRNDAuMDc1LDQ3Ny43NSA0MC4wNzUsNDgwLjU2MjUgTDQxLjgyNSw0ODAuNTYyNSBRNDEuODI1LDQ4MC41NjI1IDQxLjgyNSw0NzcuNzUgTDQwLjA3NSw0NzcuNzUgWiBNMzUuODI1LDQ3OC40Mzc1IEw0MC43NjI1LDQ3OC40Mzc1IEw0MC43NjI1LDQ3Ni42ODc1IEwzNS44MjUsNDc2LjY4NzUgTDM1LjgyNSw0NzguNDM3NSBaICIgZmlsbD0iIzAwMDAwMCIvPjx0ZXh0IGZpbGw9IiMwMDAwMDAiIGZvbnQtZmFtaWx5PSJzYW5zLXNlcmlmIiBmb250LXNpemU9IjE0IiBsZW5ndGhBZGp1c3Q9InNwYWNpbmciIHRleHRMZW5ndGg9IjI4IiB4PSI1NS44IiB5PSI0ODcuNzQyMiI+RXhhbTwvdGV4dD48bGluZSBzdHlsZT0ic3Ryb2tlOiMxODE4MTg7c3Ryb2tlLXdpZHRoOjAuNTsiIHgxPSI4IiB4Mj0iMTAyIiB5MT0iNDk4IiB5Mj0iNDk4Ii8+PGxpbmUgc3R5bGU9InN0cm9rZTojMTgxODE4O3N0cm9rZS13aWR0aDowLjU7IiB4MT0iOCIgeDI9IjEwMiIgeTE9IjUwNiIgeTI9IjUwNiIvPjxlbGxpcHNlIGN4PSIxOCIgY3k9IjUxOC45OTIyIiBmaWxsPSIjODRCRTg0IiByeD0iMyIgcnk9IjMiIHN0eWxlPSJzdHJva2U6IzAzODA0ODtzdHJva2Utd2lkdGg6MTsiLz48dGV4dCBmaWxsPSIjMDAwMDAwIiBmb250LWZhbWlseT0ic2Fucy1zZXJpZiIgZm9udC1zaXplPSIxNCIgbGVuZ3RoQWRqdXN0PSJzcGFjaW5nIiB0ZXh0TGVuZ3RoPSI3MCIgeD0iMjciIHk9IjUyMy4yMzQ0Ij5zY2hlZHVsZSgpPC90ZXh0PjwvZz48IS0tbGluayBTdHVkZW50IHRvIFBlcnNvbi0tPjxnIGNsYXNzPSJsaW5rIiBkYXRhLWVudGl0eS0xPSJTdHVkZW50IiBkYXRhLWVudGl0eS0yPSJQZXJzb24iIGRhdGEtc291cmNlLWxpbmU9IjQxIiBkYXRhLXVpZD0ibG5rMTAiIGlkPSJsaW5rX1N0dWRlbnRfUGVyc29uIj48cGF0aCBjb2RlTGluZT0iNDEiIGQ9Ik0xNzEuODEsMzc2LjM3IEMxNzUuMjEsMzk4LjgxIDE3Ni44MjY2LDQwOS40OTI2IDE4MC4zOTY2LDQzMy4wODI2IiBmaWxsPSJub25lIiBpZD0iU3R1ZGVudC10by1QZXJzb24iIHN0eWxlPSJzdHJva2U6IzE4MTgxODtzdHJva2Utd2lkdGg6MTsiLz48cG9seWdvbiBmaWxsPSJub25lIiBwb2ludHM9IjE4My4wOSw0NTAuODgsMTg2LjMyOTEsNDMyLjE4NDksMTc0LjQ2NDIsNDMzLjk4MDQsMTgzLjA5LDQ1MC44OCIgc3R5bGU9InN0cm9rZTojMTgxODE4O3N0cm9rZS13aWR0aDoxOyIvPjwvZz48IS0tbGluayBUZWFjaGVyIHRvIFBlcnNvbi0tPjxnIGNsYXNzPSJsaW5rIiBkYXRhLWVudGl0eS0xPSJUZWFjaGVyIiBkYXRhLWVudGl0eS0yPSJQZXJzb24iIGRhdGEtc291cmNlLWxpbmU9IjQyIiBkYXRhLXVpZD0ibG5rMTEiIGlkPSJsaW5rX1RlYWNoZXJfUGVyc29uIj48cGF0aCBjb2RlTGluZT0iNDIiIGQ9Ik0zMzcuODIsMzc2LjA5IEMzMjQuMDksMzkwLjY4IDMwNy43OSw0MDcuMTQgMjkyLDQyMSBDMjc2LjI3LDQzNC44MSAyNzIuNzA0OCw0MzguMTUyMSAyNTYuMTU0OCw0NTAuMjQyMSIgZmlsbD0ibm9uZSIgaWQ9IlRlYWNoZXItdG8tUGVyc29uIiBzdHlsZT0ic3Ryb2tlOiMxODE4MTg7c3Ryb2tlLXdpZHRoOjE7Ii8+PHBvbHlnb24gZmlsbD0ibm9uZSIgcG9pbnRzPSIyNDEuNjIsNDYwLjg2LDI1OS42OTQxLDQ1NS4wODcxLDI1Mi42MTU1LDQ0NS4zOTcyLDI0MS42Miw0NjAuODYiIHN0eWxlPSJzdHJva2U6IzE4MTgxODtzdHJva2Utd2lkdGg6MTsiLz48L2c+PCEtLWxpbmsgVGVhY2hlciB0byBJRW1wbG95ZWUtLT48ZyBjbGFzcz0ibGluayIgZGF0YS1lbnRpdHktMT0iVGVhY2hlciIgZGF0YS1lbnRpdHktMj0iSUVtcGxveWVlIiBkYXRhLXNvdXJjZS1saW5lPSI0NSIgZGF0YS11aWQ9ImxuazEyIiBpZD0ibGlua19UZWFjaGVyX0lFbXBsb3llZSI+PHBhdGggY29kZUxpbmU9IjQ1IiBkPSJNNDA0LjkyLDM3Ni4zNyBDNDI4LjUxLDQwMy44NSA0NDguMTE3NCw0MjYuNzEwNiA0NzAuMDI3NCw0NTIuMjQwNiIgZmlsbD0ibm9uZSIgaWQ9IlRlYWNoZXItdG8tSUVtcGxveWVlIiBzdHlsZT0ic3Ryb2tlOiMxODE4MTg7c3Ryb2tlLXdpZHRoOjE7c3Ryb2tlLWRhc2hhcnJheTo3LjAsNy4wOyIvPjxwb2x5Z29uIGZpbGw9Im5vbmUiIHBvaW50cz0iNDgxLjc1LDQ2NS45LDQ3NC41ODA1LDQ0OC4zMzMsNDY1LjQ3NDIsNDU2LjE0ODEsNDgxLjc1LDQ2NS45IiBzdHlsZT0ic3Ryb2tlOiMxODE4MTg7c3Ryb2tlLXdpZHRoOjE7Ii8+PC9nPjwhLS1saW5rIFN0dWRlbnQgdG8gQ291cnNlLS0+PGcgY2xhc3M9ImxpbmsiIGRhdGEtZW50aXR5LTE9IlN0dWRlbnQiIGRhdGEtZW50aXR5LTI9IkNvdXJzZSIgZGF0YS1zb3VyY2UtbGluZT0iNDgiIGRhdGEtdWlkPSJsbmsxMyIgaWQ9ImxpbmtfU3R1ZGVudF9Db3Vyc2UiPjxwYXRoIGNvZGVMaW5lPSI0OCIgZD0iTTIxMC4zLDM3Ni4zNyBDMjM5LjA3LDQwMS4yOSAyNzEuODgzOSw0MjkuNzEyNiAzMDAuNTczOSw0NTQuNTUyNiIgZmlsbD0ibm9uZSIgaWQ9IlN0dWRlbnQtdG8tQ291cnNlIiBzdHlsZT0ic3Ryb2tlOiMxODE4MTg7c3Ryb2tlLXdpZHRoOjE7Ii8+PHBvbHlnb24gZmlsbD0iIzE4MTgxOCIgcG9pbnRzPSIzMDUuMTEsNDU4LjQ4LDMwMC45MjQxLDQ0OS41NjQ5LDMwMS4zMjk5LDQ1NS4yMDcyLDI5NS42ODc3LDQ1NS42MTMsMzA1LjExLDQ1OC40OCIgc3R5bGU9InN0cm9rZTojMTgxODE4O3N0cm9rZS13aWR0aDoxOyIvPjx0ZXh0IGZpbGw9IiMwMDAwMDAiIGZvbnQtZmFtaWx5PSJzYW5zLXNlcmlmIiBmb250LXNpemU9IjEzIiBsZW5ndGhBZGp1c3Q9InNwYWNpbmciIHRleHRMZW5ndGg9IjY1IiB4PSIyNTgiIHk9IjQxOS4yODkxIj5lbnJvbGxzIGluPC90ZXh0PjwvZz48IS0tbGluayBUZWFjaGVyIHRvIENvdXJzZS0tPjxnIGNsYXNzPSJsaW5rIiBkYXRhLWVudGl0eS0xPSJUZWFjaGVyIiBkYXRhLWVudGl0eS0yPSJDb3Vyc2UiIGRhdGEtc291cmNlLWxpbmU9IjQ5IiBkYXRhLXVpZD0ibG5rMTQiIGlkPSJsaW5rX1RlYWNoZXJfQ291cnNlIj48cGF0aCBjb2RlTGluZT0iNDkiIGQ9Ik0zNjYuNDMsMzc2LjM3IEMzNjIuODIsNDAxLjI5IDM1OC45ODA2LDQyNy43MDIgMzU1LjM4MDYsNDUyLjU0MiIgZmlsbD0ibm9uZSIgaWQ9IlRlYWNoZXItdG8tQ291cnNlIiBzdHlsZT0ic3Ryb2tlOiMxODE4MTg7c3Ryb2tlLXdpZHRoOjE7Ii8+PHBvbHlnb24gZmlsbD0iIzE4MTgxOCIgcG9pbnRzPSIzNTQuNTIsNDU4LjQ4LDM1OS43Njk1LDQ1MC4xNDY4LDM1NS4yMzcxLDQ1My41MzE3LDM1MS44NTIyLDQ0OC45OTkzLDM1NC41Miw0NTguNDgiIHN0eWxlPSJzdHJva2U6IzE4MTgxODtzdHJva2Utd2lkdGg6MTsiLz48dGV4dCBmaWxsPSIjMDAwMDAwIiBmb250LWZhbWlseT0ic2Fucy1zZXJpZiIgZm9udC1zaXplPSIxMyIgbGVuZ3RoQWRqdXN0PSJzcGFjaW5nIiB0ZXh0TGVuZ3RoPSI0NS41IiB4PSIzNjIiIHk9IjQxOS4yODkxIj50ZWFjaGVzPC90ZXh0PjwvZz48IS0tcmV2ZXJzZSBsaW5rIERlcGFydG1lbnQgdG8gVGVhY2hlci0tPjxnIGNsYXNzPSJsaW5rIiBkYXRhLWVudGl0eS0xPSJEZXBhcnRtZW50IiBkYXRhLWVudGl0eS0yPSJUZWFjaGVyIiBkYXRhLXNvdXJjZS1saW5lPSI1MiIgZGF0YS11aWQ9ImxuazE1IiBpZD0ibGlua19EZXBhcnRtZW50X1RlYWNoZXIiPjxwYXRoIGNvZGVMaW5lPSI1MiIgZD0iTTM3MiwyMzUuMSBDMzcyLDI1Ny45OSAzNzIsMjc1LjAyIDM3MiwyOTcuOTEiIGZpbGw9Im5vbmUiIGlkPSJEZXBhcnRtZW50LWJhY2t0by1UZWFjaGVyIiBzdHlsZT0ic3Ryb2tlOiMxODE4MTg7c3Ryb2tlLXdpZHRoOjE7Ii8+PHBvbHlnb24gZmlsbD0ibm9uZSIgcG9pbnRzPSIzNzIsMjIzLjEsMzY4LDIyOS4xLDM3MiwyMzUuMSwzNzYsMjI5LjEsMzcyLDIyMy4xIiBzdHlsZT0ic3Ryb2tlOiMxODE4MTg7c3Ryb2tlLXdpZHRoOjE7Ii8+PHRleHQgZmlsbD0iIzAwMDAwMCIgZm9udC1mYW1pbHk9InNhbnMtc2VyaWYiIGZvbnQtc2l6ZT0iMTMiIGxlbmd0aEFkanVzdD0ic3BhY2luZyIgdGV4dExlbmd0aD0iMTkuNSIgeD0iMzczIiB5PSIyNjYuMjg5MSI+aGFzPC90ZXh0PjwvZz48IS0tcmV2ZXJzZSBsaW5rIFNjaG9vbCB0byBEZXBhcnRtZW50LS0+PGcgY2xhc3M9ImxpbmsiIGRhdGEtZW50aXR5LTE9IlNjaG9vbCIgZGF0YS1lbnRpdHktMj0iRGVwYXJ0bWVudCIgZGF0YS1zb3VyY2UtbGluZT0iNTUiIGRhdGEtdWlkPSJsbmsxNiIgaWQ9ImxpbmtfU2Nob29sX0RlcGFydG1lbnQiPjxwYXRoIGNvZGVMaW5lPSI1NSIgZD0iTTM3Miw4Mi4yOCBDMzcyLDEwNC4xMSAzNzIsMTIxLjU0IDM3MiwxNDQuODUiIGZpbGw9Im5vbmUiIGlkPSJTY2hvb2wtYmFja3RvLURlcGFydG1lbnQiIHN0eWxlPSJzdHJva2U6IzE4MTgxODtzdHJva2Utd2lkdGg6MTsiLz48cG9seWdvbiBmaWxsPSIjMTgxODE4IiBwb2ludHM9IjM3Miw3MC4yOCwzNjgsNzYuMjgsMzcyLDgyLjI4LDM3Niw3Ni4yOCwzNzIsNzAuMjgiIHN0eWxlPSJzdHJva2U6IzE4MTgxODtzdHJva2Utd2lkdGg6MTsiLz48dGV4dCBmaWxsPSIjMDAwMDAwIiBmb250LWZhbWlseT0ic2Fucy1zZXJpZiIgZm9udC1zaXplPSIxMyIgbGVuZ3RoQWRqdXN0PSJzcGFjaW5nIiB0ZXh0TGVuZ3RoPSI3MS41IiB4PSIzNzMiIHk9IjExMy4yODkxIj5jb21wb3NlZCBvZjwvdGV4dD48L2c+PCEtLWxpbmsgU3R1ZGVudCB0byBFeGFtLS0+PGcgY2xhc3M9ImxpbmsiIGRhdGEtZW50aXR5LTE9IlN0dWRlbnQiIGRhdGEtZW50aXR5LTI9IkV4YW0iIGRhdGEtc291cmNlLWxpbmU9IjU4IiBkYXRhLXVpZD0ibG5rMTciIGlkPSJsaW5rX1N0dWRlbnRfRXhhbSI+PHBhdGggY29kZUxpbmU9IjU4IiBkPSJNMTM5LjEzLDM3Ni4zNyBDMTE5Ljg4LDQwMy44NSA5Ny43NTE5LDQzNS40NTU0IDc5Ljg3MTksNDYwLjk4NTQiIGZpbGw9Im5vbmUiIGlkPSJTdHVkZW50LXRvLUV4YW0iIHN0eWxlPSJzdHJva2U6IzE4MTgxODtzdHJva2Utd2lkdGg6MTtzdHJva2UtZGFzaGFycmF5OjcuMCw3LjA7Ii8+PHBvbHlnb24gZmlsbD0iIzE4MTgxOCIgcG9pbnRzPSI3Ni40Myw0NjUuOSw4NC44NjkzLDQ2MC44MjI4LDc5LjI5ODMsNDYxLjgwNDUsNzguMzE2NSw0NTYuMjMzNSw3Ni40Myw0NjUuOSIgc3R5bGU9InN0cm9rZTojMTgxODE4O3N0cm9rZS13aWR0aDoxOyIvPjx0ZXh0IGZpbGw9IiMwMDAwMDAiIGZvbnQtZmFtaWx5PSJzYW5zLXNlcmlmIiBmb250LXNpemU9IjEzIiBsZW5ndGhBZGp1c3Q9InNwYWNpbmciIHRleHRMZW5ndGg9IjMyLjUiIHg9IjExOSIgeT0iNDE5LjI4OTEiPnRha2VzPC90ZXh0PjwvZz48IS0tU1JDPVtOTEIxUmk4bTNCdHRBdG9aUjg4RnU4MHFDR3ZTZmNkaTFxbllJYVFRZTNXTE9zcF9GaFREc21XazVTei1CeXotZGk3NjhaQ25lREVtU3Y3MjRITG5lTGVPdFljbVR0MGxHN3hGLW5ZQ2d5MVhKSnJXTjBJaWZaXzF3cVBIRUlfLVlZSW1adXFjd1JmRjFFd1hkVXVYU2k1Uk1zdnk0dldvdllVWEViNXVVOWtSbW5VZnM2RW5SU2JWd3FLVUFBZTN0cVJKNzM3NGRGTEE1cTdncDZQWXdoNG1pTDdodkFuQ3R0blFUVkJVRmJoa200djE2aXNtT2pYand1bHJEbmh6TFhKdFEzN1NTZEZSUndvNzFiNFl0VFlxdTlkNDlTLVJZNHZIQ0lud2lWWFRmellBT09LdjloR0ZHY2otQzFmOWpmcHk2QjUzeFIxVFBKd29icWpYWnNQUldIVGNocW1JRTIwUjFHdEI3TzByeFpwRmhBbzdINVJHbnluV1NialBsU2pJeGd3TGh3ZjBMUEFfNGZ4MU52c3VGdmRCbENaMnllbDVVMktoRTY1N3RsWnd1amRxUDlRQmIwR29VYWhlSVFZUHFhZ0VmQU1IMWR6aUxRSDZKZVBHRG9XWklJYjhCMzhhSlRDamItaS03RjZFUC05X10tLT48L2c+PC9zdmc+;" parent="1" vertex="1">
            <mxGeometry x="130" y="1000" width="566" height="550" as="geometry" />
          </mxCell>
        </UserObject>
      </root>
    </mxGraphModel>
  </diagram>
</mxfile>
